G04 start of page 4 for group -4063 idx -4063 *
G04 Title: rolin, componentmask *
G04 Creator: pcb 20091103 *
G04 CreationDate: vie 09 abr 2010 17:35:00 GMT UTC *
G04 For: jegc *
G04 Format: Gerber/RS-274X *
G04 PCB-Dimensions: 314961 629921 *
G04 PCB-Coordinate-Origin: lower left *
%MOIN*%
%FSLAX25Y25*%
%LNFRONTMASK*%
%ADD12C,0.0600*%
%ADD13C,0.0200*%
%ADD20C,0.0660*%
%ADD21C,0.0560*%
%ADD22C,0.0610*%
G54D20*X75473Y595512D03*
X65473D03*
X55473D03*
X45473D03*
G54D13*G36*
X102173Y598812D02*Y592212D01*
X108773D01*
Y598812D01*
X102173D01*
G37*
G54D20*X95473Y595512D03*
X85473D03*
X35473D03*
X25473D03*
X15473D03*
G54D13*G36*
X238236Y598930D02*Y592330D01*
X244836D01*
Y598930D01*
X238236D01*
G37*
G54D20*X251536Y595630D03*
X261536D03*
X271536D03*
X281536D03*
X291536D03*
G54D13*G36*
X95390Y301068D02*Y295468D01*
X100990D01*
Y301068D01*
X95390D01*
G37*
G54D21*X68190Y298268D03*
G54D13*G36*
X143028Y301028D02*Y295428D01*
X148628D01*
Y301028D01*
X143028D01*
G37*
G54D21*X115828Y298228D03*
G54D13*G36*
X29259Y333417D02*Y326817D01*
X35859D01*
Y333417D01*
X29259D01*
G37*
G54D20*X32559Y320117D03*
G54D13*G36*
X178355Y310897D02*Y304297D01*
X184955D01*
Y310897D01*
X178355D01*
G37*
G54D20*X211655Y307597D03*
X181655Y297597D03*
X211655Y287597D03*
Y297597D03*
X181655Y287597D03*
Y277597D03*
Y267597D03*
Y257597D03*
Y247597D03*
G54D13*G36*
X248389Y360108D02*Y354008D01*
X254489D01*
Y360108D01*
X248389D01*
G37*
G54D12*X251576Y387569D03*
X261576D03*
X271576D03*
X281576D03*
G54D20*X251550Y375536D03*
G54D22*X251439Y327058D03*
G54D13*G36*
X228579Y360016D02*Y353916D01*
X234679D01*
Y360016D01*
X228579D01*
G37*
G54D22*X231629Y326966D03*
G54D13*G36*
X228250Y378836D02*Y372236D01*
X234850D01*
Y378836D01*
X228250D01*
G37*
G36*
X148576Y390569D02*Y384569D01*
X154576D01*
Y390569D01*
X148576D01*
G37*
G54D12*X161576Y387569D03*
X171576D03*
X181576D03*
X191576D03*
X201576D03*
X211576D03*
Y417569D03*
X221576Y387569D03*
X231576D03*
X241576D03*
X201576Y417569D03*
X191576D03*
X181576D03*
X171576D03*
X161576D03*
X151576D03*
X231576D03*
X221576D03*
X241576D03*
X251576D03*
X261576D03*
X271576D03*
X281576D03*
G54D13*G36*
X178692Y178356D02*Y172756D01*
X184292D01*
Y178356D01*
X178692D01*
G37*
G54D21*X181492Y145556D03*
G54D13*G36*
X142622Y223167D02*Y217067D01*
X148722D01*
Y223167D01*
X142622D01*
G37*
G54D22*X145672Y190117D03*
G54D13*G36*
X178693Y222923D02*Y217323D01*
X184293D01*
Y222923D01*
X178693D01*
G37*
G54D21*X181493Y190123D03*
G54D20*X290827Y166023D03*
G54D13*G36*
X209522Y178709D02*Y173109D01*
X215122D01*
Y178709D01*
X209522D01*
G37*
G54D21*X212322Y145909D03*
G54D13*G36*
X95429Y240241D02*Y234641D01*
X101029D01*
Y240241D01*
X95429D01*
G37*
G54D21*X68229Y237441D03*
G54D13*G36*
X143065Y240319D02*Y234719D01*
X148665D01*
Y240319D01*
X143065D01*
G37*
G54D21*X115865Y237519D03*
G54D13*G36*
X209481Y223120D02*Y217520D01*
X215081D01*
Y223120D01*
X209481D01*
G37*
G54D20*X181655Y237597D03*
X211655D03*
G54D21*X212281Y190320D03*
G54D13*G36*
X287527Y179323D02*Y172723D01*
X294127D01*
Y179323D01*
X287527D01*
G37*
G54D20*X211655Y247597D03*
Y257597D03*
Y267597D03*
Y277597D03*
M02*
