M48
INCH
T34C0.020
T33C0.035
T32C0.028
%
T34
X022756Y040591
X023772Y019648
X026789Y042704
X034646Y039567
X034075Y018661
X035079Y016752
X035630Y038032
X036634Y033504
X037047Y035197
X038071Y027638
X039075Y026161
X038068Y007655
X039075Y006571
X036831Y013150
X037047Y014114
X041083Y003701
X041083Y024370
X040591Y023374
X040650Y002933
X038643Y048022
X039647Y047020
X040631Y044534
X034074Y059078
X035630Y055315
X036614Y054823
X037626Y056833
X041535Y046534
X035579Y079898
X036568Y075426
X037567Y077422
X039582Y068725
X040593Y065230
X041784Y067224
X038585Y069705
T32
X006177Y071228
X006177Y070228
X006177Y069228
X006177Y068228
X006177Y067228
X006177Y066228
X005900Y082514
X004900Y082514
X013386Y049534
X013386Y048534
X013386Y047534
X013386Y046534
X013386Y045534
X013386Y044534
X013386Y043534
X016386Y043534
X016386Y044534
X016386Y045534
X016386Y046534
X016386Y047534
X009177Y064228
X009177Y065228
X009177Y066228
X009177Y067228
X009177Y068228
X009177Y069228
X009177Y070228
X009177Y071228
X009177Y052828
X009177Y053828
X009177Y054828
X009177Y055828
X009177Y056828
X009177Y057828
X009177Y058828
X009177Y059828
X003491Y064436
X003491Y063436
X003491Y062436
X003491Y061436
X003491Y060436
X003491Y059436
X006177Y065228
X006177Y064228
X006177Y059828
X006177Y058828
X006177Y057828
X006177Y056828
X006177Y055828
X006177Y054828
X006177Y053828
X006177Y052828
X016386Y048534
X016386Y049534
X016382Y056826
X016382Y057826
X016382Y058826
X016382Y059826
X013382Y059826
X013382Y058826
X013382Y057826
X013382Y056826
X013382Y055826
X013382Y054826
X013382Y053826
X016382Y053826
X016382Y054826
X016382Y055826
X016386Y077426
X016386Y078426
X016386Y079426
X016386Y080426
X046213Y059848
X046213Y058848
X046213Y057848
X046213Y056848
X046213Y055848
X046213Y054848
X046213Y053848
X046208Y068258
X046208Y067258
X046208Y066258
X046208Y065258
X046208Y064258
X046208Y070258
X046208Y069258
X046206Y080446
X046206Y079446
X046206Y078446
X046206Y077446
X046206Y076446
X046206Y075446
X046206Y074446
X049208Y064258
X049208Y065258
X049208Y066258
X049208Y067258
X049208Y068258
X049208Y069258
X049208Y070258
X049206Y074446
X049206Y075446
X049206Y076446
X049206Y077446
X049206Y078446
X049206Y079446
X049206Y080446
X053332Y071194
X053332Y070194
X053332Y069194
X053332Y068194
X053332Y067194
X053332Y066194
X053332Y065194
X053332Y064194
X023772Y083897
X024772Y083897
X025772Y083897
X026772Y083897
X020772Y083897
X021772Y083897
X022772Y083897
X027772Y083897
X034076Y083898
X035076Y083898
X036076Y083898
X037076Y083898
X038076Y083898
X039076Y083898
X040076Y083898
X041076Y083898
X013384Y070231
X013384Y069231
X013384Y068231
X013384Y067231
X013384Y066231
X013384Y065231
X013384Y064231
X016384Y064231
X016384Y065231
X016384Y066231
X016384Y067231
X016384Y068231
X016384Y069231
X016384Y070231
X013386Y080426
X013386Y079426
X013386Y078426
X013386Y077426
X013386Y076426
X013386Y075426
X013386Y074426
X016386Y074426
X016386Y075426
X016386Y076426
X059547Y022882
X059547Y021882
X059547Y020882
X059547Y019882
X059547Y018882
X059547Y017882
X053344Y029340
X053344Y028340
X053344Y027340
X053344Y026340
X053344Y025340
X053344Y024340
X053344Y023340
X053344Y022340
X056344Y022340
X056344Y023340
X056344Y024340
X056344Y025340
X056344Y026340
X056344Y027340
X056344Y028340
X056344Y029340
X046230Y028336
X046230Y027336
X046230Y026336
X046230Y025336
X046230Y024336
X046230Y023336
X046230Y022336
X049230Y022336
X049230Y023336
X049230Y024336
X049230Y025336
X049230Y026336
X049230Y027336
X049230Y028336
X046217Y049543
X049217Y049543
X046217Y048543
X049217Y048543
X046217Y047543
X049217Y047543
X046217Y046543
X049217Y046543
X046217Y045543
X046217Y044543
X046217Y043543
X049217Y043543
X049217Y044543
X049217Y045543
X049213Y053848
X049213Y054848
X049213Y055848
X049213Y056848
X049213Y057848
X049213Y058848
X049213Y059848
X049224Y032472
X049224Y033472
X049224Y034472
X049224Y035472
X049224Y036472
X049224Y037472
X049224Y038472
X053354Y059894
X053354Y058894
X053354Y057894
X053354Y056894
X053354Y055894
X053354Y054894
X053354Y053894
X053354Y052894
X056354Y052894
X056354Y053894
X056354Y054894
X056354Y055894
X056354Y056894
X056354Y057894
X046224Y038472
X046224Y037472
X046224Y036472
X046224Y035472
X046224Y034472
X046224Y033472
X046224Y032472
X056354Y058894
X056354Y059894
X056332Y064194
X056332Y065194
X059653Y064431
X056332Y066194
X056332Y067194
X056332Y068194
X056332Y069194
X056332Y070194
X056332Y071194
X059653Y063431
X059653Y062431
X059653Y061431
X059653Y060431
X059653Y059431
X053363Y018221
X056363Y018221
X053363Y017221
X056363Y017221
X053363Y016221
X056363Y016221
X053363Y015221
X056363Y015221
X053363Y014221
X053363Y013221
X053363Y012221
X053363Y011221
X056363Y011221
X056363Y012221
X056363Y013221
X056363Y014221
X046260Y007970
X046260Y006970
X046260Y005970
X046260Y004970
X046260Y003970
X046260Y002970
X046260Y001970
X049260Y001970
X049260Y002970
X049260Y003970
X049260Y004970
X049260Y005970
X046236Y018153
X046236Y017153
X046236Y016153
X046236Y015153
X046236Y014153
X046236Y013153
X046236Y012153
X049260Y006970
X049260Y007970
X049236Y012153
X049236Y013153
X049236Y014153
X049236Y015153
X049236Y016153
X049236Y017153
X049236Y018153
X013403Y007936
X013403Y006936
X013403Y005936
X013403Y004936
X013386Y015152
X013386Y014152
X013386Y013152
X013386Y012152
X013403Y003936
X013403Y002936
X013403Y001936
X016403Y001936
X016403Y002936
X016403Y003936
X016403Y004936
X016403Y005936
X016403Y006936
X016403Y007936
X016386Y012152
X016386Y013152
X016386Y014152
X016386Y015152
X016386Y016152
X016386Y017152
X016386Y018152
X016386Y022378
X016386Y023378
X016386Y024378
X016386Y025378
X016386Y026378
X016386Y027378
X016386Y028378
X013395Y038508
X013395Y037508
X013395Y036508
X013395Y035508
X013395Y034508
X013395Y033508
X013395Y032508
X013386Y028378
X013386Y027378
X013386Y026378
X013386Y025378
X013386Y024378
X013386Y018152
X006242Y018057
X009242Y018057
X013386Y023378
X013386Y022378
X013386Y017152
X006242Y017057
X009242Y017057
X013386Y016152
X009242Y012057
X009242Y013057
X009242Y014057
X009242Y015057
X009242Y016057
X002658Y022652
X002658Y021652
X002658Y020652
X002658Y019652
X002658Y018652
X002658Y017652
X006191Y029401
X006191Y028401
X006191Y027401
X006191Y026401
X006191Y025401
X006191Y024401
X006191Y023401
X006191Y022401
X009191Y022401
X009191Y023401
X009191Y024401
X009191Y025401
X009191Y026401
X009191Y027401
X009191Y028401
X009191Y029401
X006242Y016057
X006242Y015057
X006242Y014057
X006242Y013057
X006242Y012057
X006242Y011057
X009242Y011057
X016395Y032508
X016395Y033508
X016395Y034508
X016395Y035508
X016395Y036508
X016395Y037508
X016395Y038508
T33
X001039Y065448
X001039Y063448
X001083Y060433
X001083Y058433
X061319Y021850
X061319Y023850
X061285Y018854
X061285Y016854
X061253Y060379
X061253Y058379
X061256Y063439
X061256Y065439
X001089Y016655
X001089Y018655
X001053Y021680
X001053Y023680
M30
