G04 start of page 3 for group 1 idx 1 *
G04 Title: genval, bottom *
G04 Creator: pcb 20110918 *
G04 CreationDate: mar 21 feb 2012 04:39:35 GMT UTC *
G04 For: jegc *
G04 Format: Gerber/RS-274X *
G04 PCB-Dimensions: 629921 866142 *
G04 PCB-Coordinate-Origin: lower left *
%MOIN*%
%FSLAX25Y25*%
%LNBOTTOM*%
%ADD31C,0.0350*%
%ADD30C,0.0280*%
%ADD29C,0.0200*%
%ADD28C,0.0460*%
%ADD27C,0.0410*%
%ADD26C,0.0800*%
%ADD25C,0.0001*%
%ADD24C,0.0600*%
%ADD23C,0.0150*%
%ADD22C,0.0100*%
G54D22*X61772Y712276D02*Y757048D01*
Y702276D02*X70386D01*
X76772Y708662D01*
Y747048D01*
X61772Y757048D02*X68898Y764173D01*
X55118Y694488D02*Y759055D01*
X65748Y769685D01*
X70866Y687402D02*X75984Y692520D01*
X75976Y682276D02*X80709Y687008D01*
X91772Y702276D02*X98929D01*
X103346Y706693D01*
X61772Y692276D02*X57331D01*
X55118Y694488D01*
X91772Y692276D02*X91528Y692520D01*
X75984D01*
X34913Y644362D02*Y682551D01*
X39764Y687402D01*
X46850Y638189D02*Y672835D01*
X61772Y662276D02*X57157D01*
X54724Y659843D01*
Y642126D01*
X61417Y635433D01*
X51181Y631496D02*Y663386D01*
X39764Y687402D02*X70866D01*
X46850Y672835D02*X51181Y677166D01*
X61772Y682276D02*X75976D01*
X85433Y672048D02*X80315Y677166D01*
X51181D02*X80315D01*
X51181Y663386D02*X55118Y667323D01*
X71260D01*
X76378Y662205D02*X71260Y667323D01*
X61772Y652276D02*X78037D01*
X82998Y657237D01*
X61772Y672276D02*X77724D01*
X82677Y667323D01*
X109055D01*
X92000Y672048D02*X85433D01*
X91701Y662205D02*X76378D01*
X133858Y804260D02*Y833465D01*
X139370Y838977D01*
X207709D02*X139370D01*
X156496Y779528D02*X167323D01*
X163063Y783465D02*X163858Y784260D01*
X163669Y784449D02*X163858Y784260D01*
X163457Y783859D01*
X149606Y772638D02*X156496Y779528D01*
X140157Y769685D02*X154331Y783859D01*
X133858Y774260D02*X138770D01*
X147706Y783197D01*
X133858Y784260D02*X129520D01*
X127559Y786221D01*
X163457Y783859D02*X154331D01*
X167323Y779528D02*X170276Y782481D01*
Y792323D01*
X168307Y794292D01*
X127559Y786221D02*Y802362D01*
X133858Y794260D02*X142806D01*
X133858Y804331D02*X129528D01*
X127559Y802362D01*
X142806Y794260D02*X160610Y812064D01*
X157179Y798984D02*X147706Y789511D01*
Y783197D01*
X163858Y794260D02*X163890Y794292D01*
X168307D01*
X76772Y747048D02*X83661Y753937D01*
X149606Y733268D02*Y772638D01*
X65748Y769685D02*X140157D01*
X133858Y754260D02*X133535Y753937D01*
X83661D01*
X133858Y764260D02*X133772Y764173D01*
X68898D01*
X103346Y706693D02*Y725394D01*
X80709Y687008D02*X145669D01*
X141472Y692307D02*X133835D01*
X91606Y672441D02*X91772Y672276D01*
X91701Y662205D02*X91772Y662276D01*
X109055Y667323D02*X114173Y662205D01*
X92000Y672048D02*X92126Y671922D01*
X82998Y657237D02*X149867D01*
X155452Y662822D01*
Y679723D01*
X157803Y682074D01*
X154922Y687275D02*X139954Y672307D01*
X163835Y682307D02*X163602Y682074D01*
X157803D01*
X139954Y672307D02*X133835D01*
Y662307D02*X133732Y662205D01*
X114173D01*
X133835Y652307D02*X133780Y652362D01*
X109449D01*
X103346Y725394D02*X107283Y729331D01*
X145669D01*
X149606Y733268D01*
X145669Y687008D02*X150591Y691929D01*
X146229Y697064D02*X141472Y692307D01*
X133835Y708244D02*X163780Y738189D01*
X133858Y702331D02*X133835Y702307D01*
Y708244D01*
X163780Y744181D02*Y738189D01*
X163835Y692307D02*X163457Y691929D01*
X150591D01*
X340551Y839197D02*X340764Y838985D01*
X350394Y838614D02*X350764Y838985D01*
X361220Y838528D02*X360764Y838985D01*
X340551Y837969D02*X341165Y838583D01*
X371063Y839284D02*X370764Y838985D01*
X370866Y839087D02*X370756Y838977D01*
X390551Y838772D02*X390764Y838985D01*
X400787Y838961D02*X400764Y838985D01*
X247717Y838969D02*X247968Y838718D01*
X380732Y838953D02*X380709Y838929D01*
X380764Y838985D01*
X350394Y839355D02*X350764Y838985D01*
X411024Y839244D02*X410236Y838457D01*
X370866Y838583D02*X370614Y838835D01*
X429024Y851382D02*X266664D01*
X262728Y847446D01*
X257717Y847355D02*X264696Y854334D01*
X157179Y798984D02*X427759D01*
X160610Y812064D02*X427911D01*
X445627Y794348D01*
X163858Y754260D02*X446562D01*
X163858Y774260D02*X447245D01*
X163858Y744260D02*X163780Y744181D01*
X445282Y692519D02*X440737Y697064D01*
X338671Y812064D02*X340764Y814157D01*
Y838985D01*
X247968Y838718D02*Y831702D01*
X207717Y838969D02*X207709Y838977D01*
X247968Y839220D02*X247717Y838969D01*
X258792Y829734D02*X249936D01*
X247968Y831702D01*
X262728Y847446D02*Y833670D01*
X258792Y829734D01*
X257717Y838969D02*Y847355D01*
X596528Y624307D02*X585251D01*
X574656Y634902D01*
X586980Y634386D02*X581544Y639822D01*
X596528Y614307D02*X583581D01*
X596528Y604307D02*X588341D01*
X581544Y597510D01*
X583581Y614307D02*X574656Y605382D01*
Y634902D02*Y658518D01*
X570720Y662454D01*
X596772Y634386D02*X586980D01*
X596528Y644307D02*Y688798D01*
X593352Y691974D01*
X596528Y634307D02*X596607Y634386D01*
X581544Y639822D02*Y667374D01*
X576624Y672294D01*
X563315Y691945D02*X563344Y691974D01*
X593352D01*
X563315Y671945D02*X563664Y672294D01*
X576624D01*
X563315Y661945D02*X563824Y662454D01*
X570720D01*
X574656Y605382D02*Y582750D01*
X570720Y578814D01*
X581544Y597510D02*Y567006D01*
X573672Y559134D01*
X596528Y594307D02*Y552470D01*
X593352Y549294D01*
X563535Y548937D02*X563892Y549294D01*
X593352D01*
X563535Y578937D02*X563658Y578814D01*
X570720D01*
X563535Y558937D02*X563732Y559134D01*
X573672D01*
X445697Y445339D02*X450500Y450142D01*
X450734Y460615D02*X479769D01*
X484608Y465454D01*
G54D23*X462776Y454830D02*X462173Y455433D01*
G54D22*X446009Y465339D02*X450734Y460615D01*
X448189Y470193D02*X452855Y465528D01*
X462173Y465433D02*X462078Y465528D01*
X452855D01*
X492173Y445433D02*X491964Y445642D01*
X484000D01*
X492173Y465433D02*X492152Y465454D01*
X484608D01*
X450500Y450142D02*X479500D01*
X484000Y445642D01*
X462173Y455433D02*X481887D01*
X486882Y450439D01*
X462173Y445433D02*X475734D01*
X453624Y497142D02*Y514854D01*
X454608Y515838D01*
X495936D01*
X498888Y518790D01*
X475650Y543547D02*X495272D01*
X496783Y538607D02*X498888Y536502D01*
Y518790D01*
G54D23*X515616Y530598D02*Y486318D01*
X504792Y475494D01*
G54D22*X534587Y450439D02*X539863Y455715D01*
Y542359D01*
G54D23*X499872Y468606D02*X497904Y470574D01*
G54D22*X486882Y450439D02*X534587D01*
G54D23*X492173Y455433D02*X497523D01*
X499872Y457782D01*
Y468606D01*
X492272Y485334D02*X501840D01*
X506760Y490254D01*
X492173Y475433D02*X492234Y475494D01*
X504792D01*
X506760Y546342D02*Y490254D01*
G54D22*X539863Y542359D02*X538091Y544132D01*
X528279D01*
X526691Y545720D01*
X462173Y495433D02*X467141D01*
X468384Y494190D02*X467141Y495433D01*
X462221D02*X455333D01*
X453624Y497142D01*
X445052Y480233D02*X450361Y485541D01*
X462173Y485433D02*X462065Y485541D01*
X450361D01*
G54D23*X492272Y485334D02*X492173Y485433D01*
X492272Y485334D02*X492000Y485606D01*
G54D22*X468384Y477462D02*X466416Y475494D01*
G54D23*X468384Y477462D02*X475272Y470574D01*
X497904D01*
G54D22*X462173Y475433D02*X462234Y475494D01*
X466416D01*
X468384Y477462D02*Y494190D01*
X548173Y546427D02*X545533Y549067D01*
X533535Y548937D02*X533665Y549067D01*
X545533D01*
X492137Y538470D02*X492126Y538481D01*
G54D23*X533535Y538937D02*X523955D01*
G54D22*X366142Y548229D02*X446850D01*
X462126Y548481D02*X470716D01*
X475650Y543547D01*
X477362Y548229D02*X491874D01*
X492126Y548481D01*
X446850Y548229D02*X451772Y553150D01*
X431886Y568260D02*X437280Y573654D01*
X434055Y553150D02*X448819Y567914D01*
X437280Y573654D02*X468756D01*
G54D23*X462126Y568481D02*X461559Y567914D01*
G54D22*X448819D01*
X462126Y558481D02*X475372D01*
X472441Y553150D02*X477362Y548229D01*
X451772Y553150D02*X472441D01*
X480363Y553490D02*X497670D01*
X462126Y578481D02*X462459Y578814D01*
X466416D01*
X468384Y580782D02*X466416Y578814D01*
X475372Y558481D02*X480363Y553490D01*
G54D23*X533412Y578814D02*X538248D01*
X539232Y579798D01*
G54D22*X468756Y573654D02*X474083Y568327D01*
X475785Y573397D02*X497189D01*
X492126Y568481D02*X491972Y568327D01*
X474083D01*
X533535Y558937D02*X533484Y558988D01*
X528466D01*
X533315Y651945D02*X537579D01*
X539232Y653598D01*
Y675246D01*
X537264Y677214D01*
X533315Y661945D02*X521995D01*
X537264Y677214D02*X513648D01*
X507744Y683118D01*
X492622D02*X507744D01*
X521995Y661945D02*X507744Y647694D01*
X533315Y671945D02*X518219D01*
X492680Y691974D02*X508728D01*
G54D23*X499642Y578584D02*X501840Y580782D01*
Y602430D01*
X504792Y605382D01*
X485112Y590622D02*Y607350D01*
X489048Y611286D01*
X536280D01*
G54D22*X513335Y596300D02*X515980Y598944D01*
X533535Y598937D02*X533528Y598944D01*
X515980D01*
X533535Y588937D02*X533497Y588975D01*
X525314D01*
X468384Y580797D02*X475785Y573397D01*
X462126Y588481D02*X461941Y588666D01*
X462126Y598481D02*X462113Y598494D01*
X455592D01*
G54D23*X504792Y605382D02*X537264D01*
X536280Y611286D02*X558912Y588654D01*
X537264Y605382D02*X539232Y603414D01*
Y579798D01*
X563535Y588937D02*X563252Y588654D01*
X558912D01*
X533535Y568937D02*X529355D01*
G54D22*X492126Y558481D02*X497130D01*
X498777Y560128D01*
Y571808D01*
X518219Y671945D02*X503808Y657534D01*
X497041Y662575D02*X498888Y664422D01*
Y674262D01*
X495936Y677214D01*
X462079Y652575D02*X462118Y652614D01*
X473304D01*
X476256Y662454D02*X462200D01*
X462079Y662575D01*
Y672575D02*X461961Y672457D01*
X452579D01*
X492079Y672575D02*X492046Y672608D01*
X481103D01*
X468384Y684102D02*X475272Y677214D01*
X462079Y682575D02*X462520Y682134D01*
X466416D01*
X492079Y652575D02*X492040Y652536D01*
X479463D01*
X475272Y677214D02*X495936D01*
X492079Y682575D02*X492622Y683118D01*
G54D23*X533079Y578481D02*X533535Y578937D01*
G54D22*X523654Y571929D02*Y587315D01*
X525314Y588975D01*
X513335Y569155D02*Y596300D01*
X492000Y538607D02*X496783D01*
G54D23*X523955Y538937D02*X515616Y530598D01*
X529355Y568937D02*X506760Y546342D01*
G54D22*X526691Y545720D02*Y557213D01*
X528466Y558988D01*
X497670Y553490D02*X513335Y569155D01*
X495272Y543547D02*X523654Y571929D01*
X492582Y578937D02*X492126Y578481D01*
G54D23*X492230Y578584D02*X499642D01*
G54D22*X462126Y598481D02*X466429D01*
X468384Y596526D01*
G54D23*X492299Y588654D02*X492126Y588481D01*
X492150Y588504D02*X487230D01*
X485112Y590622D01*
G54D22*X498777Y571808D02*X497189Y573397D01*
X468384Y596526D02*Y580782D01*
X563315Y701945D02*X554845D01*
X550056Y706734D01*
Y788406D01*
X543168Y694926D02*Y778566D01*
X533315Y691945D02*X540187D01*
X533315Y711945D02*Y753979D01*
X620904Y846462D02*Y624078D01*
X615984Y619158D01*
X596607Y634386D02*X612559D01*
X533315Y753979D02*X527424Y759870D01*
X479208D01*
X492063Y764465D02*X495611D01*
X492063Y754465D02*X491840Y754688D01*
X473914D01*
X478282Y769552D02*X483120Y774390D01*
X492063Y774465D02*X491988Y774390D01*
X483120D01*
X469368Y786438D02*X476256Y779550D01*
X494952D01*
X492063Y784465D02*X492068Y784470D01*
X473331Y749321D02*X511291D01*
X492068Y784470D02*X537264D01*
X492063Y794465D02*X492218Y794310D01*
X544152D01*
X533315Y681945D02*X518757D01*
X508728Y691974D01*
X540187Y691945D02*X543168Y694926D01*
X533315Y701945D02*X533051Y701681D01*
X518625D01*
X496920Y721494D02*X498888Y723462D01*
Y742158D02*Y723462D01*
X511291Y749321D02*X514445Y746167D01*
Y705861D01*
X518625Y701681D01*
X496581Y744465D02*X498888Y742158D01*
X492079Y692575D02*X492680Y691974D01*
X446562Y754260D02*X451811Y759508D01*
X447245Y774260D02*X451953Y769552D01*
X451811Y759508D02*X469094D01*
X479208Y759870D02*X475272Y763806D01*
X469094Y759508D02*X473914Y754688D01*
X451953Y769552D02*X478282D01*
X462063Y764465D02*X462722Y763806D01*
X475272D01*
X461740Y692519D02*X461881Y692377D01*
X468384Y684102D02*Y700830D01*
X466416Y702798D01*
X462063Y754465D02*X468187D01*
X473331Y749321D01*
X462063Y774465D02*X461973Y774555D01*
X452188D01*
X495611Y764465D02*X498888Y767742D01*
X492063Y744465D02*X496581D01*
X498888Y767742D02*Y775614D01*
X494952Y779550D01*
X462063Y804465D02*X467085D01*
X462063Y794465D02*X461946Y794348D01*
X462063Y784465D02*X462068Y784470D01*
X467400D01*
X467085Y804465D02*X469368Y802182D01*
Y786438D02*Y802182D01*
X550056Y788406D02*X544152Y794310D01*
X543168Y778566D02*X537264Y784470D01*
X469368Y786438D02*X467400Y784470D01*
X427759Y798984D02*X452188Y774555D01*
X461946Y794348D02*X445627D01*
X462165Y804465D02*X443469D01*
X435912Y812022D01*
Y844494D01*
X429024Y851382D01*
X264696Y854334D02*X613032D01*
X620904Y846462D01*
X461865Y692361D02*X462079Y692575D01*
X507744Y647694D02*X478224D01*
X503808Y657534D02*X481176D01*
X615984Y619158D02*X456576D01*
X474572Y657427D02*X479463Y652536D01*
X475835Y667341D02*X481103Y672608D01*
X596528Y604307D02*X597047Y603788D01*
X612527D01*
X462480Y702976D02*X462079Y702575D01*
X452359Y667341D02*X475835D01*
X481176Y657534D02*X476256Y662454D01*
X492079Y662575D02*X497041D01*
X456576Y619158D02*X452640Y615222D01*
Y601446D01*
X455592Y598494D01*
X478224Y647694D02*X473304Y652614D01*
X447179Y652307D02*X452299Y657427D01*
X474572D01*
X461941Y588666D02*X342850D01*
X462480Y702798D02*X466416D01*
X462079Y702575D02*X455815D01*
X453624Y704766D01*
X447393Y672307D02*X452359Y667341D01*
X437761Y687275D02*X452579Y672457D01*
X453624Y704766D02*Y719526D01*
X455592Y721494D01*
X496920D01*
X468384Y684102D02*X466416Y682134D01*
X461740Y692519D02*X445282D01*
X34913Y624362D02*X44047D01*
X51181Y631496D01*
X34913Y634362D02*X43024D01*
X34913D02*X34795Y634481D01*
X10394D01*
X61417Y635433D02*X98819D01*
X43024Y634362D02*X46850Y638189D01*
X98819Y635433D02*X103937Y640551D01*
Y646851D01*
X109449Y652362D01*
X91701Y662205D02*X91913Y662418D01*
X67323Y592914D02*X81890Y578347D01*
X66843Y588276D02*X81890Y573229D01*
X70622Y598276D02*X85433Y583465D01*
X98425D01*
X91772Y588276D02*X110937D01*
X91772Y578276D02*X91701Y578347D01*
X81890D01*
X47638Y597638D02*X52362Y592914D01*
X61772Y598276D02*X70622D01*
X61772Y588276D02*X66843D01*
X44302Y602097D02*Y575934D01*
X52362Y592914D02*X67323D01*
X34913Y567055D02*X38583Y563386D01*
X68110D01*
X61772Y568276D02*X69576D01*
X34913Y594362D02*Y567055D01*
X44302Y575934D02*X47012Y573225D01*
X71026D01*
X61772Y578276D02*X71114D01*
X34913Y614362D02*X43118D01*
X47638Y609843D01*
Y597638D01*
X34913Y604362D02*X42038D01*
X44302Y602097D01*
X34913Y604362D02*X34882Y604331D01*
X10827D01*
X133819Y588260D02*X143417D01*
X148181Y593024D02*X143417Y588260D01*
X163819D02*X163748Y588189D01*
X150000D01*
X133819Y578260D02*X146192D01*
X128958Y573038D02*X149982D01*
X141386Y568260D02*X133819D01*
X163727Y558168D02*X158272D01*
X155940Y560500D01*
X133819Y558260D02*X133811Y558268D01*
X163819Y578260D02*X163642Y578083D01*
X155028D01*
X156496Y553150D02*X141386Y568260D01*
X338492Y593024D02*X342850Y588666D01*
X163835Y652307D02*X447179D01*
X163835Y672307D02*X447393D01*
X154922Y687275D02*X437761D01*
X395712D02*X392902D01*
X146229Y697064D02*X440737D01*
X338492Y593024D02*X148181D01*
X146192Y578260D02*X151096Y583165D01*
X158392Y573298D02*X155940Y570846D01*
X149982Y573038D02*X155028Y578083D01*
X151096Y583165D02*X168140D01*
X170173Y581132D01*
Y574733D01*
X168738Y573298D01*
X158392D01*
X366142Y548229D02*X366110Y548260D01*
X163819D01*
X133819D02*X133654Y548425D01*
X156496Y553150D02*X434055D01*
X127370Y564441D02*Y571449D01*
X110034Y544913D02*Y495753D01*
X163819Y538260D02*X163780Y538221D01*
X133858Y501969D02*X163780Y531890D01*
X133654Y548425D02*X120866D01*
X133811Y558268D02*X123622D01*
X163780Y531890D02*Y538221D01*
X110034Y495753D02*X115803Y489984D01*
X147057D01*
X151735Y485306D01*
X163858Y485339D02*X163825Y485306D01*
X151735D01*
X147483Y480233D02*X142377Y485339D01*
X133858D01*
X127370Y571449D02*X128958Y573038D01*
X69576Y568276D02*X84726Y553125D01*
X101822D01*
X110034Y544913D01*
X91772Y548276D02*X91622Y548425D01*
X91772Y558276D02*X91583Y558087D01*
X86163D01*
X91622Y548425D02*X77559D01*
X133685Y455512D02*X95669D01*
X154730Y470193D02*X149876Y465339D01*
X133858D01*
X163803Y475394D02*X151969D01*
X147047Y470473D01*
X133858Y445339D02*X133724Y445473D01*
X62008D01*
X133858Y455339D02*X133685Y455512D01*
X136766Y450394D02*X139092D01*
X139896Y451199D01*
Y460068D01*
X139074Y460891D01*
X136017D01*
X135953Y460827D01*
X119708Y543137D02*X138489D01*
X139704Y544352D01*
X163386Y558268D02*X163606Y558048D01*
X163827Y558268D02*X163727Y558168D01*
X133528Y445670D02*X133858Y445339D01*
X163606Y475591D02*X163858Y475339D01*
X133858Y495339D02*Y501969D01*
X92913Y450394D02*X136614D01*
X136024Y460827D02*X130512D01*
X127756Y463583D01*
Y468504D01*
X129724Y470473D01*
X147047D01*
X76378Y542126D02*Y474803D01*
X95669Y455512D01*
X71260Y534055D02*Y472048D01*
X92913Y450394D01*
X51772Y544488D02*Y455709D01*
X62008Y445473D01*
X61913Y284008D02*X71803D01*
X61913Y294008D02*Y334748D01*
X71803Y284008D02*X122441Y334646D01*
X91913Y284008D02*X111960D01*
X133953Y335079D02*X133520Y334646D01*
X122441D01*
X53150Y277559D02*Y340945D01*
X134016Y273622D02*X133858Y273780D01*
G54D23*X134055Y274016D02*X133839Y273799D01*
X134055Y274016D02*X145079D01*
G54D22*X91913Y274008D02*X91527Y273622D01*
X78740D01*
X82280Y268919D02*X148669D01*
X61913Y334748D02*X72047Y344882D01*
X62205Y350000D02*X140551D01*
X133953Y345079D02*X133756Y344882D01*
X72047D01*
X53150Y340945D02*X62205Y350000D01*
X127559Y383859D02*X128780Y385079D01*
X133953D01*
X135378Y355118D02*X134646Y354386D01*
X133677Y365355D02*X129528D01*
X127559Y367323D01*
X133953Y375079D02*X134032Y375000D01*
X139764D01*
X135378Y355118D02*X139764D01*
X164101Y19292D02*X164031Y19362D01*
X163982Y59313D02*X164031Y59362D01*
Y69362D02*X163807Y69138D01*
X164024Y59355D02*X164031Y59362D01*
Y49362D02*X159401D01*
X157480Y47441D01*
Y36614D01*
X159843Y34252D02*X157480Y36614D01*
X163858Y121520D02*X163881Y121497D01*
Y114726D01*
X158465Y136811D02*X155512Y139764D01*
X110826Y121014D02*Y82893D01*
X99822Y145773D02*X119079Y126516D01*
X110826Y82893D02*X119472Y74247D01*
X111126Y170567D02*X115308Y166384D01*
X119079Y126516D02*X135585D01*
X133858Y131520D02*X133753Y131625D01*
X122616D01*
X135585Y146559D02*X131655D01*
X139751Y146533D02*X135603D01*
X135577Y146559D01*
X133858Y141520D02*X133788Y141450D01*
X123402D01*
X135852Y126516D02*X139789D01*
X140874Y127601D01*
Y145410D01*
X139751Y146533D01*
X163858Y161520D02*X163831Y161493D01*
X150519D01*
X131262Y156777D02*X145803D01*
X150519Y161493D01*
X115308Y166384D02*X146374D01*
X151554Y171564D01*
X163858Y171520D02*X163814Y171564D01*
X151554D01*
X134006Y151668D02*X148554D01*
X153270Y156384D01*
X119472Y74247D02*X147768D01*
X152877Y69138D01*
X163807D02*X152877D01*
X163687Y59706D02*X164031Y59362D01*
X145463Y54589D02*X150228Y59355D01*
X164024D01*
X134031Y39362D02*X133939Y39270D01*
X134031Y29362D02*X133721Y29052D01*
X139576Y34313D02*X141165Y35901D01*
Y42629D01*
X139389Y44404D01*
X127055D01*
X125841Y45619D01*
Y53281D01*
X127149Y54589D01*
X145463D01*
X26575Y216796D02*X34709D01*
X42323Y224410D01*
X26559Y206520D02*X41165D01*
X50197Y215551D01*
X26559Y216520D02*X26283Y216796D01*
X10528D01*
X26559Y186520D02*X26527Y186551D01*
X10890D01*
X26559Y226520D02*Y261796D01*
X33465Y268701D01*
X42323Y224410D02*Y251969D01*
X73819Y268701D02*X78740Y273622D01*
X61913Y274008D02*X56701D01*
X53150Y277559D01*
X73819Y258859D02*X78740Y253937D01*
X61913Y254008D02*X73945D01*
X78740Y249213D01*
X61913Y264008D02*X77369D01*
X58071Y249016D02*X74803D01*
X79724Y244095D01*
X78740Y249213D02*X111417D01*
X91913Y244008D02*X91826Y244095D01*
X79724D01*
X62157Y234252D02*X72835D01*
X77559Y238977D01*
X133858Y233780D02*X133779Y233859D01*
X116142D01*
X133858Y243780D02*X133779Y243701D01*
X116929D01*
X33465Y268701D02*X73819D01*
X42323Y251969D02*X49213Y258859D01*
X73819D01*
X77369Y264008D02*X82280Y268919D01*
X50197Y215551D02*Y241142D01*
X58071Y249016D01*
X57394Y244008D02*X53937Y240551D01*
Y225197D01*
X62205Y216929D01*
X99213D01*
X61913Y244008D02*X57394D01*
X91913Y254008D02*X91842Y253937D01*
X78740D01*
X26559Y196520D02*X34141D01*
X26559Y186520D02*X35888D01*
X26559Y176520D02*Y149868D01*
X31047Y145380D01*
X34141Y196520D02*X55413Y175248D01*
X35888Y186520D02*X41658Y180750D01*
Y161493D01*
X47553Y155598D01*
X55413Y175248D02*X70740D01*
X62417Y180567D02*X72102D01*
X62417Y170567D02*X69526D01*
X47553Y155598D02*X69954D01*
X31047Y145380D02*X69954D01*
X62417Y140567D02*X68479D01*
X62417Y150567D02*X69483D01*
X62417Y160567D02*X70880D01*
X62417Y130567D02*X56713D01*
X53055Y126909D01*
X72312Y136734D02*Y45165D01*
X133939Y39270D02*X78207D01*
X133721Y29052D02*X58557D01*
X68656Y37490D02*X71833Y34313D01*
X139576D01*
X84495Y135555D02*X96285D01*
X92417Y130567D02*X92296Y130446D01*
X84888D01*
X96285Y135555D02*X110826Y121014D01*
X53055Y126909D02*Y34554D01*
X58557Y29052D01*
X72312Y45165D02*X78207Y39270D01*
X62417Y120567D02*X67618D01*
X68656Y119530D01*
Y37490D01*
X70740Y175248D02*X85281Y160707D01*
X72102Y180567D02*X86853Y165816D01*
X99036D01*
X92277Y160707D02*X85281D01*
X69954Y155598D02*X84888Y140664D01*
X68479Y140567D02*X72312Y136734D01*
X69483Y150567D02*X84495Y135555D01*
X70880Y160567D02*X85674Y145773D01*
X69526Y170567D02*X84495Y155598D01*
X92417Y140567D02*X92320Y140664D01*
X84888D01*
X92417Y160567D02*X92277Y160707D01*
X69954Y145380D02*X84888Y130446D01*
X98643Y155598D02*X122616Y131625D01*
X99036Y165816D02*X123402Y141450D01*
X84495Y155598D02*X98643D01*
X85674Y145773D02*X99822D01*
X131655Y146559D02*X129297Y148917D01*
Y154812D01*
X131262Y156777D01*
X133858Y171520D02*X139158Y176820D01*
X133858Y181520D02*Y190276D01*
X135557Y191974D01*
X92417Y170567D02*X111126D01*
X111960Y284008D02*X148031Y320079D01*
X127559Y367323D02*Y398425D01*
X133858Y283780D02*Y289370D01*
X140551Y350000D02*X155512Y364961D01*
X148031Y351969D02*X155906Y359843D01*
X163914Y355118D02*X163953Y355079D01*
X163835Y364961D02*X155512D01*
X134307Y354725D02*X133953Y355079D01*
X149606Y373622D02*Y364961D01*
X139764Y355118D02*X149606Y364961D01*
X163953Y365079D02*X163835Y364961D01*
X111417Y249213D02*X116929Y243701D01*
X99213Y216929D02*X116142Y233859D01*
X163464Y263386D02*X163858Y263780D01*
X156299Y268504D02*X141575Y253780D01*
X158465Y238780D02*X155709Y241536D01*
X155906Y359843D02*X167717D01*
X170866Y362992D01*
Y373229D01*
X168898Y375197D01*
X163953Y375079D02*X164071Y375197D01*
X168898D01*
X127559Y398425D02*X131102Y401969D01*
X133858Y289370D02*X163780Y319292D01*
X156299Y380315D02*X149606Y373622D01*
X160433Y395670D02*X139764Y375000D01*
X163780Y324906D02*Y319292D01*
X163953Y325079D02*X163780Y324906D01*
X148031Y320079D02*Y351969D01*
X163992Y335040D02*X163953Y335079D01*
G54D23*X145079Y274016D02*X150000Y278937D01*
G54D22*X163858Y273780D02*X163622Y274016D01*
X163836Y273802D02*X163858Y273780D01*
X148669Y268919D02*X153552Y273802D01*
X163836D01*
G54D23*X595472Y208819D02*X580571D01*
X595472Y218819D02*X595323Y218670D01*
X587448D01*
X595472Y218819D02*X595787Y218504D01*
X613189D01*
X580571Y208819D02*X576624Y212766D01*
X595747Y188544D02*X595472Y188819D01*
X612851Y188544D02*X588810D01*
X586464Y186198D01*
X595472Y198819D02*X583341D01*
X578592Y194070D01*
X538860Y273402D02*X541200Y275742D01*
X533441Y273402D02*X538860D01*
X563441Y283402D02*X563229Y283614D01*
X557928D01*
G54D22*X539449Y258135D02*X540944Y256640D01*
Y234830D01*
X539485Y233371D01*
X533472D01*
X533441Y233402D01*
G54D23*X595472Y178819D02*Y134198D01*
X593352Y132078D01*
X595472Y228819D02*Y268702D01*
X590400Y273774D01*
X576624Y212766D02*Y238350D01*
X571704Y243270D01*
X563441Y253402D02*X572396D01*
X584496Y241302D01*
Y221622D01*
X563441Y243402D02*X563573Y243270D01*
X571704D01*
X584496Y221622D02*X587448Y218670D01*
X563441Y273402D02*X563813Y273774D01*
X590400D01*
X540216Y63198D02*X536280Y59262D01*
X553992Y127158D02*Y21870D01*
X543168Y11046D01*
X547104Y123222D02*Y38598D01*
X543168Y34662D01*
X540216Y120270D02*Y63198D01*
X548937Y132213D02*X553992Y127158D01*
X543168D02*X547104Y123222D01*
X533630Y132213D02*X548937D01*
X563630D02*X563765Y132078D01*
X593352D01*
X586464Y186198D02*Y145854D01*
X578592Y194070D02*Y164550D01*
X576624Y162582D01*
X586464Y145854D02*X582528Y141918D01*
X563630Y142213D02*X563925Y141918D01*
X582528D01*
G54D22*X533630Y182213D02*X533629Y182214D01*
G54D23*X533630Y162213D02*X533999Y162582D01*
X538248D01*
X563630Y162213D02*X563999Y162582D01*
X576624D01*
X563630Y172213D02*X563421Y172422D01*
X553008D01*
X541200Y360366D02*X537264Y364302D01*
G54D22*X474882Y359752D02*X499007D01*
G54D23*X492236Y364717D02*X492651Y364302D01*
X537264D01*
X492236Y374717D02*X551449D01*
G54D22*X480793Y440374D02*X543700D01*
X548173Y444847D01*
Y546427D01*
G54D23*X529392Y339702D02*X482160D01*
G54D22*X474409Y349410D02*X479331Y354331D01*
X492236Y344717D02*X498571D01*
X499591Y345736D01*
Y359168D01*
X499007Y359752D01*
X492236Y354717D02*X491850Y354331D01*
X479331D01*
G54D23*X551449Y374717D02*X555960Y370206D01*
Y285582D01*
X557928Y283614D01*
X541200Y275742D02*Y360366D01*
X533441Y293402D02*Y335653D01*
X529392Y339702D01*
X533441Y283402D02*X525668D01*
X523488Y285582D01*
X533441Y263402D02*X518116D01*
X508728Y272790D01*
G54D22*X513062Y258135D02*X539449D01*
G54D23*X523488Y285582D02*Y326910D01*
X520536Y329862D01*
X462299Y283355D02*X456835D01*
X455592Y284598D01*
Y299358D01*
X457560Y301326D01*
X462299Y283355D02*X462558Y283614D01*
X466416D01*
X457560Y301326D02*X497904D01*
X499872Y303294D01*
Y322974D01*
X492236Y324717D02*X497679D01*
X462299Y263355D02*X465837D01*
G54D22*X468308Y265826D02*X475861Y258273D01*
X499224D01*
G54D23*X492299Y273355D02*X492864Y272790D01*
X508728D01*
G54D22*X492299Y263355D02*X507842D01*
G54D23*X497679Y324717D02*X497904Y324942D01*
X499872Y322974D01*
X476256Y329862D02*X471336Y334782D01*
X462236Y334717D02*X462301Y334782D01*
X471336D01*
X462236Y384717D02*X466665D01*
X468384Y382998D01*
G54D22*X475734Y445433D02*X480793Y440374D01*
G54D23*X462236Y344717D02*X462331Y344622D01*
X477240D01*
X468384Y382998D02*Y366270D01*
X466416Y364302D01*
G54D22*X468384Y366250D02*X474882Y359752D01*
G54D23*X462236Y364717D02*X462651Y364302D01*
X466416D01*
X520536Y329862D02*X476256D01*
X482160Y339702D02*X477240Y344622D01*
X448268Y335079D02*X453150Y339961D01*
X474803D01*
X480118Y334646D01*
X492236Y334717D02*X492165Y334646D01*
X480118D01*
G54D22*X367779Y354662D02*X373031Y349410D01*
X474409D01*
X462236Y384717D02*X448029D01*
X428150Y395670D02*X449102Y374717D01*
X462236D01*
X398031Y380315D02*X423630Y354717D01*
X462236D01*
G54D23*X492362Y161528D02*X498818D01*
X507744Y170454D01*
X492362Y171528D02*X498978D01*
X501840Y174390D01*
X507744Y170454D02*Y185214D01*
X501840Y174390D02*Y191118D01*
X507744Y197022D01*
Y185214D02*X512664Y190134D01*
X462362Y181528D02*X467150D01*
X469368Y179310D02*X467150Y181528D01*
X469368Y163566D02*X467400Y161598D01*
X462362Y161528D02*X462432Y161598D01*
X467400D01*
X469368Y163566D02*Y179310D01*
G54D22*X492362Y131528D02*X483039D01*
X462362D02*X475243D01*
G54D23*X496530Y141528D02*X499872Y144870D01*
Y153726D01*
X496920Y156678D01*
G54D22*X513645Y139806D02*Y179294D01*
G54D23*X462752Y141918D02*X462362Y141528D01*
X492362D02*X496530D01*
G54D22*X462362D02*X479985D01*
X484810Y136703D02*X510542D01*
X513645Y139806D01*
X479331Y151575D02*X492315D01*
X492362Y151528D01*
G54D23*X476256Y156678D02*X496920D01*
G54D22*X483039Y131528D02*X477953Y136614D01*
X479985Y141528D02*X484810Y136703D01*
X474409Y146654D02*X479331Y151575D01*
G54D23*X469368Y163566D02*X476256Y156678D01*
X512664Y190134D02*X536280D01*
X507744Y197022D02*X541200D01*
X546120Y192102D01*
X536280Y190134D02*X539232Y187182D01*
X546120Y192102D02*Y179310D01*
X553008Y172422D01*
X539232Y187182D02*Y163566D01*
X538248Y162582D01*
X533421Y172422D02*X533630Y172213D01*
G54D22*X521907D02*X533630D01*
X513645Y179294D02*X516565Y182214D01*
X533629D02*X516565D01*
X518567Y168873D02*X521907Y172213D01*
G54D23*X543168Y34662D02*X484128D01*
G54D22*X492504Y49607D02*X492598Y49701D01*
Y39701D02*X499304D01*
X500737Y41134D01*
X492807Y49910D02*X480225D01*
X477056Y54649D02*X499242D01*
X475394Y45079D02*X480225Y49910D01*
X492598Y29701D02*X477386D01*
G54D23*X462598Y39701D02*X462717Y39582D01*
X479208D01*
X462598Y29701D02*X481253Y11046D01*
G54D22*X500737Y41134D02*Y53154D01*
X499242Y54649D01*
G54D23*X463037Y59262D02*X468384D01*
X493037D02*X536280D01*
X481253Y11046D02*X543168D01*
X468384Y59262D02*X470352Y61230D01*
X462598Y59701D02*X463037Y59262D01*
X470352Y61230D02*Y77958D01*
X468384Y79926D01*
X462598Y79701D02*X455817D01*
X453624Y81894D01*
Y95670D01*
X462598Y79701D02*X462823Y79926D01*
X468384D01*
X453624Y95670D02*X457560Y99606D01*
X496920D01*
X492598Y69701D02*X492983Y70086D01*
X492598Y59701D02*X493037Y59262D01*
X484128Y34662D02*X479208Y39582D01*
G54D22*X477386Y29701D02*X472244Y34843D01*
X470414Y61292D02*X477056Y54649D01*
X472244Y34843D02*X421260D01*
X407087Y29331D02*X407087Y29331D01*
X390748Y58071D02*X387008Y54331D01*
X390748Y65707D02*Y58071D01*
X399118Y49701D01*
X407087Y29331D02*X415748D01*
X421260Y34843D01*
X399118Y49701D02*X462598D01*
X418898Y45079D02*X475394D01*
X462598Y69701D02*X383252D01*
X380768Y72185D02*X373031Y64449D01*
X380709Y76156D02*Y72244D01*
X383252Y69701D01*
X390748Y65707D02*X390748Y65707D01*
G54D23*X492983Y70086D02*X516600D01*
X465837Y263355D02*X468384Y265902D01*
Y281646D01*
X466416Y283614D01*
G54D22*X500480Y257018D02*X499224Y258273D01*
G54D23*X533441Y243402D02*X533309Y243270D01*
X518568D01*
X503808Y238350D02*X518568Y253110D01*
G54D22*X500480Y244878D02*Y257018D01*
X507842Y263355D02*X513062Y258135D01*
X492299Y243355D02*X498957D01*
X500480Y244878D01*
G54D23*X533441Y253402D02*X533149Y253110D01*
X518568D01*
G54D22*X492299Y253355D02*X492110Y253544D01*
X479921D01*
G54D23*X475347Y233355D02*X480192Y228510D01*
X503808D01*
G54D22*X478150Y238583D02*X483465Y233268D01*
X492299Y233355D02*X492212Y233268D01*
X483465D01*
G54D23*X480107Y243355D02*X485112Y238350D01*
X503808Y228510D02*X518568Y243270D01*
X485112Y238350D02*X503808D01*
X462299Y243355D02*X480107D01*
G54D22*X415551Y248425D02*X474803D01*
X447835Y238583D02*X478150D01*
G54D23*X462299Y233355D02*X473379D01*
X462299D02*X475347D01*
G54D22*X474803Y248425D02*X479921Y253544D01*
X462299Y253355D02*X462110Y253544D01*
G54D23*X462299Y273355D02*X383732D01*
X378150Y278937D01*
G54D22*X462110Y253544D02*X398819D01*
G54D23*X499872Y102558D02*Y118302D01*
X523488Y148806D02*Y76974D01*
X516600Y70086D01*
X533630Y122213D02*X538273D01*
X540216Y120270D01*
X533630Y142213D02*X529687D01*
X527424Y139950D01*
Y129126D01*
X529392Y127158D01*
X543168D01*
G54D22*X518567Y130952D02*X514012Y126397D01*
G54D23*X496920Y99606D02*X499872Y102558D01*
X492636Y121254D02*X496920D01*
X499872Y118302D01*
X533630Y152213D02*X526895D01*
X523488Y148806D01*
G54D22*X462362Y151528D02*X362948D01*
X475243Y131528D02*X480374Y126397D01*
X514012D01*
X518567Y168876D02*Y130952D01*
X375984Y146654D02*X474409D01*
X349535Y171528D02*X462362D01*
X350787Y161811D02*X361071Y151528D01*
X362795D01*
X350787Y167520D02*Y161614D01*
X448819Y131496D02*X453937Y136614D01*
X477953D01*
X98425Y583465D02*X123622Y558268D01*
X96063Y573229D02*X120866Y548425D01*
X99525Y563320D02*X119708Y543137D01*
X110937Y588276D02*X115748Y583465D01*
X91386Y558662D02*X91772Y558276D01*
X68110Y563386D02*X72047Y559449D01*
X86070Y563320D02*X99525D01*
X81890Y573229D02*X96063D01*
X61772Y558276D02*X66528D01*
X69291Y555512D01*
X71026Y573225D02*X86163Y558087D01*
X71114Y578276D02*X86070Y563320D01*
X72047Y559449D02*Y553937D01*
X77559Y548425D01*
X69291Y555512D02*Y549213D01*
X76378Y542126D01*
X61772Y538276D02*X67039D01*
X71260Y534055D01*
X61772Y548276D02*X55559D01*
X51772Y544488D01*
X145276Y583465D02*X150000Y588189D01*
X115748Y583465D02*X145276D01*
X155940Y570846D02*Y560500D01*
X139704Y544352D02*Y561825D01*
X138396Y563133D01*
X128678D01*
X127370Y564441D01*
G54D23*X163953Y335079D02*X448268D01*
G54D22*X164370Y354662D02*X367779D01*
X398031Y380315D02*X156299D01*
X428150Y395670D02*X160433D01*
X223622Y401969D02*X131102D01*
X343482Y156384D02*X153270D01*
X350787Y161614D02*X345557Y156384D01*
X405906Y238780D02*X415551Y248425D01*
G54D23*X378150Y278937D02*X150000D01*
G54D22*X383858Y268504D02*X156299D01*
X405906Y238780D02*X158465D01*
X163858Y233780D02*X443032D01*
X148425Y238977D02*X77559D01*
X133858Y253780D02*X141575D01*
X340650Y180414D02*X349535Y171528D01*
X340748Y186614D02*Y180512D01*
X337056Y176820D01*
X139158D02*X334050D01*
X135557Y191974D02*X233230D01*
X237715Y196459D01*
X408071Y34252D02*X418898Y45079D01*
X164031Y29362D02*X406496Y29331D01*
X373031Y64449D02*X148228D01*
X387008Y54331D02*X154528D01*
X408071Y34252D02*X159843D01*
X134031Y79362D02*Y84876D01*
X163881Y114726D01*
X134031Y49362D02*X149559D01*
X154528Y54331D01*
X134031Y69362D02*X143315D01*
X448819Y131496D02*X163882D01*
X443032Y233780D02*X447835Y238583D01*
X366142Y136811D02*X158465D01*
X163858Y445339D02*X445697D01*
X163819Y568260D02*X431886D01*
X163858Y465339D02*X446009D01*
X154730Y470193D02*X448189D01*
X147483Y480233D02*X445052D01*
X448029Y384717D02*X416287Y416460D01*
X267892Y427041D02*X278473Y416460D01*
X416287D01*
X227559Y405906D02*X223622Y401969D01*
X383858Y268504D02*X398819Y253544D01*
X366142Y136811D02*X375984Y146654D01*
X143315Y69362D02*X148228Y64449D01*
X163858Y151520D02*X158409D01*
X155512Y148622D02*Y139764D01*
X163882Y131496D02*X163858Y131520D01*
X158409Y151520D02*X155512Y148622D01*
X343504Y156384D02*X345557D01*
X334055Y176820D02*X337056D01*
X163858Y253780D02*X158504D01*
X163858Y263780D02*X157874D01*
X152756Y258662D01*
X158504Y253780D02*X155709Y250985D01*
X152756Y258662D02*Y243307D01*
X155709Y250985D02*Y241536D01*
X152756Y243307D02*X148425Y238977D01*
G54D24*X92417Y110567D03*
Y120567D03*
Y130567D03*
Y140567D03*
Y150567D03*
Y160567D03*
Y170567D03*
Y180567D03*
X163858Y223780D03*
Y233780D03*
Y243780D03*
Y253780D03*
Y263780D03*
Y273780D03*
Y283780D03*
G54D25*G36*
X59417Y183567D02*Y177567D01*
X65417D01*
Y183567D01*
X59417D01*
G37*
G54D24*X62417Y170567D03*
Y160567D03*
Y150567D03*
Y140567D03*
Y130567D03*
Y120567D03*
Y110567D03*
G54D26*X10890Y186551D03*
Y166551D03*
X10528Y216796D03*
G54D25*G36*
X23579Y229520D02*Y223520D01*
X29579D01*
Y229520D01*
X23579D01*
G37*
G54D24*X26579Y216520D03*
Y206520D03*
Y196520D03*
Y186520D03*
Y176520D03*
X61772Y588276D03*
Y578276D03*
Y568276D03*
Y558276D03*
Y548276D03*
Y538276D03*
Y528276D03*
X91772D03*
Y538276D03*
Y548276D03*
Y558276D03*
X133819Y558260D03*
Y548260D03*
Y538260D03*
X91772Y568276D03*
X133819Y568260D03*
X91772Y578276D03*
Y588276D03*
Y598276D03*
G54D25*G36*
X130819Y601260D02*Y595260D01*
X136819D01*
Y601260D01*
X130819D01*
G37*
G54D24*X133819Y588260D03*
Y578260D03*
G54D25*G36*
X130858Y498339D02*Y492339D01*
X136858D01*
Y498339D01*
X130858D01*
G37*
G54D24*X133858Y485339D03*
Y475339D03*
Y465339D03*
Y455339D03*
X163858D03*
Y465339D03*
Y475339D03*
X133858Y445339D03*
Y435339D03*
X163858D03*
Y445339D03*
Y485339D03*
Y495339D03*
X163819Y538260D03*
Y548260D03*
Y558260D03*
Y568260D03*
Y578260D03*
Y588260D03*
Y598260D03*
G54D25*G36*
X130953Y388079D02*Y382079D01*
X136953D01*
Y388079D01*
X130953D01*
G37*
G54D24*X133953Y375079D03*
Y365079D03*
Y355079D03*
X163953D03*
Y365079D03*
Y375079D03*
Y385079D03*
X133953Y345079D03*
Y335079D03*
Y325079D03*
X163953D03*
Y335079D03*
Y345079D03*
X61913Y234008D03*
Y224008D03*
G54D26*X10528Y236796D03*
G54D25*G36*
X58913Y297008D02*Y291008D01*
X64913D01*
Y297008D01*
X58913D01*
G37*
G54D24*X61913Y284008D03*
Y274008D03*
Y264008D03*
Y254008D03*
Y244008D03*
X91913Y224008D03*
Y234008D03*
Y244008D03*
Y254008D03*
Y264008D03*
Y274008D03*
Y284008D03*
Y294008D03*
G54D25*G36*
X130858Y286780D02*Y280780D01*
X136858D01*
Y286780D01*
X130858D01*
G37*
G54D24*X133858Y273780D03*
Y263780D03*
Y253780D03*
Y243780D03*
Y233780D03*
Y223780D03*
G54D25*G36*
X131031Y82362D02*Y76362D01*
X137031D01*
Y82362D01*
X131031D01*
G37*
G54D24*X134031Y69362D03*
Y59362D03*
X164031D03*
Y69362D03*
Y79362D03*
X134031Y49362D03*
X164031D03*
X134031Y39362D03*
Y29362D03*
Y19362D03*
X164031D03*
Y29362D03*
Y39362D03*
G54D25*G36*
X130858Y184520D02*Y178520D01*
X136858D01*
Y184520D01*
X130858D01*
G37*
G54D24*X133858Y171520D03*
Y161520D03*
Y151520D03*
Y141520D03*
Y131520D03*
Y121520D03*
X163858D03*
Y131520D03*
Y141520D03*
Y151520D03*
Y161520D03*
Y171520D03*
Y181520D03*
G54D25*G36*
X592472Y231819D02*Y225819D01*
X598472D01*
Y231819D01*
X592472D01*
G37*
G54D24*X595472Y218819D03*
Y208819D03*
Y198819D03*
Y188819D03*
G54D26*X612851Y188544D03*
G54D24*X595472Y178819D03*
G54D26*X612851Y168544D03*
X613189Y218504D03*
Y238504D03*
G54D25*G36*
X530441Y296402D02*Y290402D01*
X536441D01*
Y296402D01*
X530441D01*
G37*
G54D24*X533441Y283402D03*
Y273402D03*
Y263402D03*
Y253402D03*
Y243402D03*
Y233402D03*
X492299Y233355D03*
Y243355D03*
Y253355D03*
Y263355D03*
X533441Y223402D03*
X492299Y223355D03*
G54D25*G36*
X459299Y286355D02*Y280355D01*
X465299D01*
Y286355D01*
X459299D01*
G37*
G54D24*X492299Y283355D03*
X462299Y273355D03*
X492299D03*
X462299Y263355D03*
Y253355D03*
Y243355D03*
Y233355D03*
Y223355D03*
G54D25*G36*
X530630Y185213D02*Y179213D01*
X536630D01*
Y185213D01*
X530630D01*
G37*
G54D24*X563630Y172213D03*
Y182213D03*
X563441Y223402D03*
Y233402D03*
Y243402D03*
Y253402D03*
Y263402D03*
Y273402D03*
Y283402D03*
Y293402D03*
G54D25*G36*
X459173Y498433D02*Y492433D01*
X465173D01*
Y498433D01*
X459173D01*
G37*
G54D24*X462173Y485433D03*
Y475433D03*
Y465433D03*
Y455433D03*
Y445433D03*
Y435433D03*
X492173D03*
Y445433D03*
Y455433D03*
Y465433D03*
Y475433D03*
Y485433D03*
Y495433D03*
X492126Y538481D03*
Y548481D03*
Y558481D03*
Y568481D03*
Y578481D03*
Y588481D03*
Y598481D03*
G54D25*G36*
X530535Y601937D02*Y595937D01*
X536535D01*
Y601937D01*
X530535D01*
G37*
G54D24*X533535Y588937D03*
Y578937D03*
Y568937D03*
Y558937D03*
Y548937D03*
Y538937D03*
Y528937D03*
X563535D03*
Y538937D03*
Y548937D03*
Y558937D03*
Y568937D03*
Y578937D03*
Y588937D03*
Y598937D03*
X563315Y641945D03*
Y651945D03*
Y661945D03*
Y671945D03*
Y681945D03*
Y691945D03*
Y701945D03*
Y711945D03*
G54D25*G36*
X593528Y647307D02*Y641307D01*
X599528D01*
Y647307D01*
X593528D01*
G37*
G54D24*X596528Y634307D03*
Y624307D03*
Y614307D03*
Y604307D03*
Y594307D03*
G54D26*X612527Y603788D03*
Y583788D03*
X612559Y634386D03*
Y654386D03*
G54D24*X533630Y172213D03*
Y162213D03*
Y152213D03*
Y142213D03*
Y132213D03*
Y122213D03*
Y112213D03*
X563630D03*
Y122213D03*
Y132213D03*
Y142213D03*
Y152213D03*
Y162213D03*
G54D25*G36*
X459598Y82701D02*Y76701D01*
X465598D01*
Y82701D01*
X459598D01*
G37*
G54D24*X462598Y69701D03*
Y59701D03*
Y49701D03*
Y39701D03*
Y29701D03*
Y19701D03*
X492598D03*
Y29701D03*
Y39701D03*
Y49701D03*
Y59701D03*
Y69701D03*
Y79701D03*
G54D25*G36*
X459362Y184528D02*Y178528D01*
X465362D01*
Y184528D01*
X459362D01*
G37*
G54D24*X462362Y171528D03*
Y161528D03*
Y151528D03*
Y141528D03*
Y131528D03*
Y121528D03*
X492362D03*
Y131528D03*
Y141528D03*
Y151528D03*
Y161528D03*
Y171528D03*
Y181528D03*
G54D25*G36*
X58772Y715276D02*Y709276D01*
X64772D01*
Y715276D01*
X58772D01*
G37*
G54D24*X61772Y702276D03*
Y692276D03*
Y682276D03*
Y672276D03*
Y662276D03*
G54D25*G36*
X56000Y828142D02*Y822142D01*
X62000D01*
Y828142D01*
X56000D01*
G37*
G54D24*X49000Y825142D03*
G54D25*G36*
X31913Y647362D02*Y641362D01*
X37913D01*
Y647362D01*
X31913D01*
G37*
G54D24*X34913Y634362D03*
G54D26*X10394Y634481D03*
G54D24*X34913Y624362D03*
Y614362D03*
Y604362D03*
Y594362D03*
X61772Y652276D03*
Y642276D03*
G54D25*G36*
X58772Y601276D02*Y595276D01*
X64772D01*
Y601276D01*
X58772D01*
G37*
G54D26*X10827Y604331D03*
X10394Y654481D03*
X10827Y584331D03*
G54D25*G36*
X459126Y601481D02*Y595481D01*
X465126D01*
Y601481D01*
X459126D01*
G37*
G54D24*X462126Y588481D03*
Y578481D03*
Y568481D03*
Y558481D03*
Y548481D03*
Y538481D03*
X462079Y672575D03*
Y662575D03*
Y652575D03*
Y642575D03*
G54D25*G36*
X459236Y387717D02*Y381717D01*
X465236D01*
Y387717D01*
X459236D01*
G37*
G54D24*X462236Y374717D03*
Y364717D03*
Y354717D03*
Y344717D03*
Y334717D03*
Y324717D03*
G54D25*G36*
X459079Y705575D02*Y699575D01*
X465079D01*
Y705575D01*
X459079D01*
G37*
G54D24*X462079Y692575D03*
Y682575D03*
G54D25*G36*
X459063Y807465D02*Y801465D01*
X465063D01*
Y807465D01*
X459063D01*
G37*
G54D24*X462063Y794465D03*
Y784465D03*
Y774465D03*
Y764465D03*
Y754465D03*
Y744465D03*
X492079Y642575D03*
Y652575D03*
Y662575D03*
Y672575D03*
Y682575D03*
Y692575D03*
Y702575D03*
X492063Y744465D03*
Y754465D03*
Y764465D03*
Y774465D03*
Y784465D03*
Y794465D03*
Y804465D03*
G54D25*G36*
X530315Y714945D02*Y708945D01*
X536315D01*
Y714945D01*
X530315D01*
G37*
G54D24*X533315Y701945D03*
Y691945D03*
Y681945D03*
Y671945D03*
Y661945D03*
Y651945D03*
Y641945D03*
X492236Y324717D03*
Y334717D03*
Y344717D03*
Y354717D03*
Y364717D03*
Y374717D03*
Y384717D03*
X237717Y838969D03*
X247717D03*
X257717D03*
X267717D03*
G54D25*G36*
X204717Y841969D02*Y835969D01*
X210717D01*
Y841969D01*
X204717D01*
G37*
G54D24*X217717Y838969D03*
X227717D03*
X277717D03*
G54D25*G36*
X337764Y841985D02*Y835985D01*
X343764D01*
Y841985D01*
X337764D01*
G37*
G54D24*X350764Y838985D03*
X360764D03*
X370764D03*
X380764D03*
X390764D03*
X400764D03*
X410764D03*
G54D25*G36*
X130835Y705307D02*Y699307D01*
X136835D01*
Y705307D01*
X130835D01*
G37*
G54D24*X133835Y692307D03*
Y682307D03*
Y672307D03*
Y662307D03*
X163835D03*
Y672307D03*
Y682307D03*
Y692307D03*
Y702307D03*
X133835Y652307D03*
Y642307D03*
X163835D03*
Y652307D03*
X91772Y642276D03*
Y652276D03*
Y662276D03*
Y672276D03*
Y682276D03*
Y692276D03*
Y702276D03*
Y712276D03*
G54D25*G36*
X130858Y807260D02*Y801260D01*
X136858D01*
Y807260D01*
X130858D01*
G37*
G54D24*X133858Y794260D03*
Y784260D03*
Y774260D03*
Y764260D03*
Y754260D03*
Y744260D03*
X163858D03*
Y754260D03*
Y764260D03*
Y774260D03*
Y784260D03*
Y794260D03*
Y804260D03*
G54D27*X267892Y427041D03*
X227559Y405906D03*
X237721Y196483D03*
X340748Y186614D03*
X350787Y167520D03*
X368307Y131496D03*
X370472Y141142D03*
X410827Y243701D03*
X405906Y233740D03*
X390748Y261614D03*
X380683Y76549D03*
X390748Y65707D03*
X410827Y37008D03*
X406496Y29331D03*
X346457Y395670D03*
X356299Y380315D03*
X366339Y335040D03*
X370472Y351969D03*
X380709Y276378D03*
X386432Y480220D03*
X396473Y470196D03*
X406310Y445335D03*
X415348Y465337D03*
X405933Y652297D03*
X417841Y672238D03*
X395825Y687251D03*
X385853Y697051D03*
G54D28*X340742Y590782D03*
G54D27*X356299Y553150D03*
X366142Y548229D03*
X376264Y568327D03*
X355793Y798980D03*
X365685Y754262D03*
X375666Y774222D03*
G54D29*G54D30*G54D31*G54D30*G54D31*G54D30*G54D31*G54D30*G54D31*G54D30*G54D31*G54D30*G54D31*G54D30*G54D31*G54D30*M02*
