M48
INCH
T13C0.020
T16C0.038
T17C0.028
T18C0.030
%
T13
X009819Y029826
X006819Y029826
X014582Y029822
X011582Y029822
X018149Y017555
X018149Y014555
X018149Y022012
X018149Y019012
X021232Y017590
X021232Y014590
X009822Y023744
X006822Y023744
X014586Y023751
X011586Y023751
X021228Y022032
X021228Y019032
T17
X018165Y030759
X021165Y030759
X018165Y029759
X021165Y028759
X021165Y029759
X018165Y028759
X018165Y027759
X018165Y026759
X018165Y025759
X018165Y024759
X025157Y038756
X026157Y038756
X027157Y038756
X028157Y038756
X025155Y037553
X023155Y037553
X015157Y038756
X016157Y038756
X017157Y038756
X018157Y038756
X019157Y038756
X020157Y038756
X021157Y038756
X021157Y041756
X022157Y038756
X023157Y038756
X024157Y038756
X020157Y041756
X019157Y041756
X018157Y041756
X017157Y041756
X016157Y041756
X015157Y041756
X023157Y041756
X022157Y041756
X024157Y041756
X025157Y041756
X026157Y041756
X027157Y041756
X028157Y041756
X018165Y023759
X021165Y023759
X021165Y024759
X021165Y025759
X021165Y026759
X021165Y027759
T18
X025143Y035705
X025143Y032705
X023162Y035696
X023162Y032696
X014567Y022011
X014567Y019011
T16
X007547Y059551
X006547Y059551
X005547Y059551
X004547Y059551
X010547Y059551
X009547Y059551
X008547Y059551
X003547Y059551
X002547Y059551
X001547Y059551
X024153Y059563
X025153Y059563
X026153Y059563
X027153Y059563
X028153Y059563
X029153Y059563
X003255Y033011
X003255Y032011
X029082Y016602
X029082Y017602
M30
