G04 This is an RS-274x file exported by *
G04 gerbv version 2.4.0 *
G04 More information is available about gerbv at *
G04 http://gerbv.gpleda.org/ *
G04 --End of header info--*
%MOIN*%
%FSLAX23Y23*%
%IPPOS*%
%MIA1B0*%
G04 --Define apertures--*
%ADD10C,0,0600*%
%ADD11C,0,0200*%
%ADD12C,0,0660*%
%ADD13C,0,0560*%
%ADD14C,0,0610*%
G04 --Start main section--*
G54D12*
G01X03905Y05955D03*
G01X03805Y05955D03*
G01X03705Y05955D03*
G01X03605Y05955D03*
G54D11*
G36*
G01X04172Y05988D02*
G01X04172Y05922D01*
G01X04238Y05922D01*
G01X04238Y05988D01*
G01X04172Y05988D01*
G37*
G54D12*
G01X04105Y05955D03*
G01X04005Y05955D03*
G01X03505Y05955D03*
G01X03405Y05955D03*
G01X03305Y05955D03*
G54D11*
G36*
G01X05532Y05989D02*
G01X05532Y05923D01*
G01X05598Y05923D01*
G01X05598Y05989D01*
G01X05532Y05989D01*
G37*
G54D12*
G01X05665Y05956D03*
G01X05765Y05956D03*
G01X05865Y05956D03*
G01X05965Y05956D03*
G01X06065Y05956D03*
G54D11*
G36*
G01X04104Y03010D02*
G01X04104Y02954D01*
G01X04160Y02954D01*
G01X04160Y03010D01*
G01X04104Y03010D01*
G37*
G54D13*
G01X03832Y02982D03*
G54D11*
G36*
G01X04580Y03010D02*
G01X04580Y02954D01*
G01X04636Y02954D01*
G01X04636Y03010D01*
G01X04580Y03010D01*
G37*
G54D13*
G01X04308Y02982D03*
G54D11*
G36*
G01X03442Y03334D02*
G01X03442Y03268D01*
G01X03508Y03268D01*
G01X03508Y03334D01*
G01X03442Y03334D01*
G37*
G54D12*
G01X03475Y03201D03*
G54D11*
G36*
G01X04933Y03109D02*
G01X04933Y03043D01*
G01X04999Y03043D01*
G01X04999Y03109D01*
G01X04933Y03109D01*
G37*
G54D12*
G01X05266Y03076D03*
G01X04966Y02976D03*
G01X05266Y02876D03*
G01X05266Y02976D03*
G01X04966Y02876D03*
G01X04966Y02776D03*
G01X04966Y02676D03*
G01X04966Y02576D03*
G01X04966Y02476D03*
G54D11*
G36*
G01X05634Y03601D02*
G01X05634Y03540D01*
G01X05695Y03540D01*
G01X05695Y03601D01*
G01X05634Y03601D01*
G37*
G54D10*
G01X05666Y03875D03*
G01X05766Y03875D03*
G01X05866Y03875D03*
G01X05966Y03875D03*
G54D12*
G01X05665Y03755D03*
G54D14*
G01X05664Y03270D03*
G54D11*
G36*
G01X05436Y03600D02*
G01X05436Y03539D01*
G01X05497Y03539D01*
G01X05497Y03600D01*
G01X05436Y03600D01*
G37*
G54D14*
G01X05466Y03269D03*
G54D11*
G36*
G01X05432Y03788D02*
G01X05432Y03722D01*
G01X05498Y03722D01*
G01X05498Y03788D01*
G01X05432Y03788D01*
G37*
G36*
G01X04636Y03905D02*
G01X04636Y03845D01*
G01X04696Y03845D01*
G01X04696Y03905D01*
G01X04636Y03905D01*
G37*
G54D10*
G01X04766Y03875D03*
G01X04866Y03875D03*
G01X04966Y03875D03*
G01X05066Y03875D03*
G01X05166Y03875D03*
G01X05266Y03875D03*
G01X05266Y04175D03*
G01X05366Y03875D03*
G01X05466Y03875D03*
G01X05566Y03875D03*
G01X05166Y04175D03*
G01X05066Y04175D03*
G01X04966Y04175D03*
G01X04866Y04175D03*
G01X04766Y04175D03*
G01X04666Y04175D03*
G01X05466Y04175D03*
G01X05366Y04175D03*
G01X05566Y04175D03*
G01X05666Y04175D03*
G01X05766Y04175D03*
G01X05866Y04175D03*
G01X05966Y04175D03*
G54D11*
G36*
G01X04937Y01783D02*
G01X04937Y01727D01*
G01X04993Y01727D01*
G01X04993Y01783D01*
G01X04937Y01783D01*
G37*
G54D13*
G01X04965Y01455D03*
G54D11*
G36*
G01X04576Y02231D02*
G01X04576Y02170D01*
G01X04637Y02170D01*
G01X04637Y02231D01*
G01X04576Y02231D01*
G37*
G54D14*
G01X04607Y01901D03*
G54D11*
G36*
G01X04937Y02229D02*
G01X04937Y02173D01*
G01X04993Y02173D01*
G01X04993Y02229D01*
G01X04937Y02229D01*
G37*
G54D13*
G01X04965Y01901D03*
G54D12*
G01X06058Y01660D03*
G54D11*
G36*
G01X05245Y01787D02*
G01X05245Y01731D01*
G01X05301Y01731D01*
G01X05301Y01787D01*
G01X05245Y01787D01*
G37*
G54D13*
G01X05273Y01459D03*
G54D11*
G36*
G01X04104Y02402D02*
G01X04104Y02346D01*
G01X04160Y02346D01*
G01X04160Y02402D01*
G01X04104Y02402D01*
G37*
G54D13*
G01X03832Y02374D03*
G54D11*
G36*
G01X04580Y02403D02*
G01X04580Y02347D01*
G01X04636Y02347D01*
G01X04636Y02403D01*
G01X04580Y02403D01*
G37*
G54D13*
G01X04308Y02375D03*
G54D11*
G36*
G01X05245Y02231D02*
G01X05245Y02175D01*
G01X05301Y02175D01*
G01X05301Y02231D01*
G01X05245Y02231D01*
G37*
G54D12*
G01X04966Y02376D03*
G01X05266Y02376D03*
G54D13*
G01X05273Y01903D03*
G54D11*
G36*
G01X06025Y01793D02*
G01X06025Y01727D01*
G01X06091Y01727D01*
G01X06091Y01793D01*
G01X06025Y01793D01*
G37*
G54D12*
G01X05266Y02476D03*
G01X05266Y02576D03*
G01X05266Y02676D03*
G01X05266Y02776D03*
M02*
