G04 This is an RS-274x file exported by *
G04 gerbv version 2.4.0 *
G04 More information is available about gerbv at *
G04 http://gerbv.gpleda.org/ *
G04 --End of header info--*
%MOIN*%
%FSLAX23Y23*%
%IPPOS*%
%MIA1B0*%
G04 --Define apertures--*
%ADD10C,0,0250*%
%ADD11C,0,0600*%
%ADD12C,0,0200*%
%ADD13C,0,0500*%
%ADD14C,0,0550*%
%ADD15C,0,0380*%
%ADD16C,0,0280*%
%ADD17C,0,0300*%
%ADD18C,0,0100*%
G04 --Start main section--*
G54D18*
G01X04005Y05955D02*
G01X04005Y03751D01*
G54D10*
G01X03405Y05955D02*
G01X03403Y05953D01*
G01X03405Y06120D02*
G01X03405Y05955D01*
G01X03405Y05955D02*
G01X03404Y05954D01*
G54D18*
G01X04005Y05955D02*
G01X04005Y05955D01*
G01X03805Y05955D02*
G01X03805Y05955D01*
G01X03805Y05955D02*
G01X03805Y03637D01*
G54D10*
G01X03495Y06211D02*
G01X03405Y06120D01*
G01X03403Y05953D02*
G01X03403Y03089D01*
G54D18*
G01X03885Y03556D02*
G01X03805Y03637D01*
G01X04004Y03301D02*
G01X03475Y03301D01*
G01X03956Y03201D02*
G01X03475Y03201D01*
G54D10*
G01X03403Y03089D02*
G01X03510Y02982D01*
G01X03510Y02982D02*
G01X03832Y02982D01*
G54D18*
G01X04966Y03875D02*
G01X04966Y03726D01*
G01X04666Y03933D02*
G01X04666Y03875D01*
G01X04966Y03875D02*
G01X04966Y03875D01*
G01X04766Y03875D02*
G01X04766Y03875D01*
G01X04766Y03875D02*
G01X04766Y03731D01*
G01X04762Y04030D02*
G01X04666Y03933D01*
G01X04869Y02976D02*
G01X04966Y02976D01*
G01X04770Y03530D02*
G01X04770Y03075D01*
G01X04770Y03075D02*
G01X04869Y02976D01*
G01X04966Y03726D02*
G01X04770Y03530D01*
G01X04866Y03724D02*
G01X04697Y03556D01*
G01X04766Y03731D02*
G01X04684Y03650D01*
G01X04684Y03650D02*
G01X04106Y03650D01*
G01X04697Y03556D02*
G01X03885Y03556D01*
G01X04106Y03650D02*
G01X04005Y03751D01*
G01X04308Y02982D02*
G01X04308Y02982D01*
G01X04308Y02982D02*
G01X04132Y02982D01*
G01X04132Y02982D02*
G01X04131Y02983D01*
G01X04131Y02983D02*
G01X04131Y03173D01*
G01X04131Y03173D02*
G01X04004Y03301D01*
G01X04031Y03126D02*
G01X03956Y03201D01*
G01X05865Y04176D02*
G01X05865Y05956D01*
G54D10*
G01X06065Y05956D02*
G01X06065Y04474D01*
G54D18*
G01X05966Y05955D02*
G01X05966Y04444D01*
G01X05565Y04176D02*
G01X05565Y05956D01*
G01X05666Y05956D02*
G01X05666Y04175D01*
G01X05766Y05956D02*
G01X05766Y04175D01*
G54D10*
G01X05266Y04176D02*
G01X05266Y05506D01*
G01X05266Y04175D02*
G01X05266Y04176D01*
G01X05266Y04175D02*
G01X05266Y04176D01*
G54D18*
G01X05866Y04175D02*
G01X05865Y04176D01*
G01X06077Y04161D02*
G01X05946Y04030D01*
G01X05966Y04444D02*
G01X06077Y04333D01*
G01X06077Y04333D02*
G01X06077Y04161D01*
G54D10*
G01X06126Y04082D02*
G01X06126Y04413D01*
G01X06126Y04413D02*
G01X06065Y04474D01*
G01X05410Y03993D02*
G01X06037Y03993D01*
G01X06037Y03993D02*
G01X06126Y04082D01*
G01X05984Y06211D02*
G01X03495Y06211D01*
G01X05266Y06121D02*
G01X05177Y06210D01*
G01X06066Y05956D02*
G01X06066Y06130D01*
G01X06066Y06130D02*
G01X05984Y06211D01*
G54D18*
G01X05765Y05956D02*
G01X05766Y05956D01*
G54D10*
G01X06066Y05956D02*
G01X06065Y05956D01*
G54D18*
G01X05865Y05956D02*
G01X05866Y05956D01*
G01X05866Y05956D02*
G01X05866Y05506D01*
G01X05965Y05956D02*
G01X05966Y05955D01*
G54D10*
G01X05266Y05507D02*
G01X05266Y06121D01*
G54D18*
G01X05665Y05956D02*
G01X05666Y05956D01*
G01X05766Y05956D02*
G01X05766Y05506D01*
G54D10*
G01X03832Y02982D02*
G01X03832Y02982D01*
G01X03832Y02982D02*
G01X03832Y02374D01*
G54D18*
G01X04031Y02476D02*
G01X04031Y03126D01*
G54D10*
G01X04305Y01901D02*
G01X04607Y01901D01*
G01X03832Y02374D02*
G01X04305Y01901D01*
G54D18*
G01X04308Y02375D02*
G01X04308Y02374D01*
G01X04308Y02374D02*
G01X04132Y02374D01*
G01X04132Y02374D02*
G01X04031Y02476D01*
G01X04966Y02876D02*
G01X04340Y02876D01*
G01X04340Y02876D02*
G01X04308Y02907D01*
G01X04399Y02576D02*
G01X04308Y02485D01*
G01X04308Y02485D02*
G01X04308Y02375D01*
G01X04308Y02907D02*
G01X04308Y02982D01*
G01X04966Y02576D02*
G01X04399Y02576D01*
G01X05466Y03754D02*
G01X05466Y03569D01*
G54D10*
G01X05366Y03370D02*
G01X05366Y03875D01*
G54D18*
G01X05465Y03755D02*
G01X05466Y03754D01*
G01X05466Y03875D02*
G01X05465Y03875D01*
G01X05946Y04030D02*
G01X04762Y04030D01*
G54D10*
G01X05365Y03876D02*
G01X05365Y03874D01*
G01X05366Y03875D02*
G01X05366Y03875D01*
G01X05366Y03875D02*
G01X05366Y03948D01*
G01X05366Y03948D02*
G01X05410Y03993D01*
G54D18*
G01X04866Y03875D02*
G01X04866Y03875D01*
G01X04866Y03875D02*
G01X04866Y03724D01*
G01X05465Y03875D02*
G01X05465Y03755D01*
G01X05566Y03875D02*
G01X05665Y03776D01*
G01X05665Y03755D02*
G01X05664Y03754D01*
G01X05665Y03571D02*
G01X05665Y03776D01*
G01X05664Y03754D02*
G01X05664Y03570D01*
G01X05664Y03570D02*
G01X05665Y03571D01*
G01X05267Y02976D02*
G01X05690Y02976D01*
G01X05266Y02976D02*
G01X05267Y02976D01*
G01X05690Y02976D02*
G01X05766Y03051D01*
G01X05766Y03051D02*
G01X05766Y03875D01*
G01X05866Y02883D02*
G01X05866Y03875D01*
G54D10*
G01X05664Y03270D02*
G01X05663Y03269D01*
G54D18*
G01X05266Y02476D02*
G01X05266Y02476D01*
G01X05067Y02517D02*
G01X05066Y03875D01*
G01X05024Y02476D02*
G01X05067Y02517D01*
G01X05266Y02576D02*
G01X05215Y02576D01*
G01X05215Y02576D02*
G01X05183Y02544D01*
G01X05266Y02476D02*
G01X05458Y02476D01*
G01X05458Y02476D02*
G01X05866Y02883D01*
G54D10*
G01X05466Y03269D02*
G01X05467Y03270D01*
G01X05663Y03269D02*
G01X05466Y03269D01*
G01X05466Y03269D02*
G01X05366Y03370D01*
G01X04607Y01901D02*
G01X04965Y01543D01*
G54D18*
G01X04965Y01755D02*
G01X04965Y01755D01*
G01X04965Y01901D02*
G01X04965Y01901D01*
G01X04965Y01901D02*
G01X04965Y01755D01*
G54D10*
G01X04965Y01543D02*
G01X04965Y01455D01*
G01X04965Y01455D02*
G01X04968Y01459D01*
G01X04968Y01459D02*
G01X05273Y01459D01*
G54D18*
G01X04965Y01755D02*
G01X05060Y01660D01*
G01X05060Y01660D02*
G01X06058Y01660D01*
G01X05274Y01760D02*
G01X06058Y01760D01*
G01X05273Y01903D02*
G01X05273Y01902D01*
G01X05273Y01902D02*
G01X05273Y01759D01*
G01X05273Y01759D02*
G01X05274Y01760D01*
G01X05266Y02876D02*
G01X05265Y02877D01*
G01X05265Y02877D02*
G01X05186Y02877D01*
G01X05186Y02877D02*
G01X05114Y02804D01*
G01X04966Y02476D02*
G01X05024Y02476D01*
G01X04966Y02476D02*
G01X04966Y02476D01*
G01X05043Y01901D02*
G01X04965Y01901D01*
G01X05114Y02804D02*
G01X05114Y01971D01*
G01X05114Y01971D02*
G01X05043Y01901D01*
G01X05183Y02544D02*
G01X05183Y01951D01*
G01X05183Y01951D02*
G01X05231Y01903D01*
G01X05231Y01903D02*
G01X05273Y01903D01*
G01X04966Y02876D02*
G01X04966Y02876D01*
G54D11*
G01X03905Y05955D03*
G01X03805Y05955D03*
G01X03705Y05955D03*
G01X03605Y05955D03*
G54D12*
G36*
G01X04175Y05985D02*
G01X04175Y05925D01*
G01X04235Y05925D01*
G01X04235Y05985D01*
G01X04175Y05985D01*
G37*
G54D11*
G01X04105Y05955D03*
G01X04005Y05955D03*
G01X03505Y05955D03*
G01X03405Y05955D03*
G01X03305Y05955D03*
G54D12*
G36*
G01X05535Y05986D02*
G01X05535Y05926D01*
G01X05595Y05926D01*
G01X05595Y05986D01*
G01X05535Y05986D01*
G37*
G54D11*
G01X05665Y05956D03*
G01X05765Y05956D03*
G01X05865Y05956D03*
G01X05965Y05956D03*
G01X06065Y05956D03*
G54D12*
G36*
G01X04107Y03007D02*
G01X04107Y02957D01*
G01X04157Y02957D01*
G01X04157Y03007D01*
G01X04107Y03007D01*
G37*
G54D13*
G01X03832Y02982D03*
G54D12*
G36*
G01X04583Y03007D02*
G01X04583Y02957D01*
G01X04633Y02957D01*
G01X04633Y03007D01*
G01X04583Y03007D01*
G37*
G54D13*
G01X04308Y02982D03*
G54D12*
G36*
G01X03445Y03331D02*
G01X03445Y03271D01*
G01X03505Y03271D01*
G01X03505Y03331D01*
G01X03445Y03331D01*
G37*
G54D11*
G01X03475Y03201D03*
G54D12*
G36*
G01X04936Y03106D02*
G01X04936Y03046D01*
G01X04996Y03046D01*
G01X04996Y03106D01*
G01X04936Y03106D01*
G37*
G54D11*
G01X05266Y03076D03*
G01X04966Y02976D03*
G01X05266Y02876D03*
G01X05266Y02976D03*
G01X04966Y02876D03*
G01X04966Y02776D03*
G01X04966Y02676D03*
G01X04966Y02576D03*
G01X04966Y02476D03*
G54D12*
G36*
G01X05637Y03598D02*
G01X05637Y03543D01*
G01X05692Y03543D01*
G01X05692Y03598D01*
G01X05637Y03598D01*
G37*
G54D11*
G01X05666Y03875D03*
G01X05766Y03875D03*
G01X05866Y03875D03*
G01X05966Y03875D03*
G01X05665Y03755D03*
G54D14*
G01X05664Y03270D03*
G54D12*
G36*
G01X05439Y03597D02*
G01X05439Y03542D01*
G01X05494Y03542D01*
G01X05494Y03597D01*
G01X05439Y03597D01*
G37*
G54D14*
G01X05466Y03269D03*
G54D12*
G36*
G01X05435Y03785D02*
G01X05435Y03725D01*
G01X05495Y03725D01*
G01X05495Y03785D01*
G01X05435Y03785D01*
G37*
G36*
G01X04636Y03905D02*
G01X04636Y03845D01*
G01X04696Y03845D01*
G01X04696Y03905D01*
G01X04636Y03905D01*
G37*
G54D11*
G01X04766Y03875D03*
G01X04866Y03875D03*
G01X04966Y03875D03*
G01X05066Y03875D03*
G01X05166Y03875D03*
G01X05266Y03875D03*
G01X05266Y04175D03*
G01X05366Y03875D03*
G01X05466Y03875D03*
G01X05566Y03875D03*
G01X05166Y04175D03*
G01X05066Y04175D03*
G01X04966Y04175D03*
G01X04866Y04175D03*
G01X04766Y04175D03*
G01X04666Y04175D03*
G01X05466Y04175D03*
G01X05366Y04175D03*
G01X05566Y04175D03*
G01X05666Y04175D03*
G01X05766Y04175D03*
G01X05866Y04175D03*
G01X05966Y04175D03*
G54D12*
G36*
G01X04940Y01780D02*
G01X04940Y01730D01*
G01X04990Y01730D01*
G01X04990Y01780D01*
G01X04940Y01780D01*
G37*
G54D13*
G01X04965Y01455D03*
G54D12*
G36*
G01X04579Y02228D02*
G01X04579Y02173D01*
G01X04634Y02173D01*
G01X04634Y02228D01*
G01X04579Y02228D01*
G37*
G54D14*
G01X04607Y01901D03*
G54D12*
G36*
G01X04940Y02226D02*
G01X04940Y02176D01*
G01X04990Y02176D01*
G01X04990Y02226D01*
G01X04940Y02226D01*
G37*
G54D13*
G01X04965Y01901D03*
G54D11*
G01X06058Y01660D03*
G54D12*
G36*
G01X05248Y01784D02*
G01X05248Y01734D01*
G01X05298Y01734D01*
G01X05298Y01784D01*
G01X05248Y01784D01*
G37*
G54D13*
G01X05273Y01459D03*
G54D12*
G36*
G01X04107Y02399D02*
G01X04107Y02349D01*
G01X04157Y02349D01*
G01X04157Y02399D01*
G01X04107Y02399D01*
G37*
G54D13*
G01X03832Y02374D03*
G54D12*
G36*
G01X04583Y02400D02*
G01X04583Y02350D01*
G01X04633Y02350D01*
G01X04633Y02400D01*
G01X04583Y02400D01*
G37*
G54D13*
G01X04308Y02375D03*
G54D12*
G36*
G01X05248Y02228D02*
G01X05248Y02178D01*
G01X05298Y02178D01*
G01X05298Y02228D01*
G01X05248Y02228D01*
G37*
G54D11*
G01X04966Y02376D03*
G01X05266Y02376D03*
G54D13*
G01X05273Y01903D03*
G54D12*
G36*
G01X06028Y01790D02*
G01X06028Y01730D01*
G01X06088Y01730D01*
G01X06088Y01790D01*
G01X06028Y01790D01*
G37*
G54D11*
G01X05266Y02476D03*
G01X05266Y02576D03*
G01X05266Y02676D03*
G01X05266Y02776D03*
M02*
