G04 start of page 2 for group 0 idx 1 *
G04 Title: rolin, component *
G04 Creator: pcb 20091103 *
G04 CreationDate: vie 09 abr 2010 17:35:00 GMT UTC *
G04 For: jegc *
G04 Format: Gerber/RS-274X *
G04 PCB-Dimensions: 314961 629921 *
G04 PCB-Coordinate-Origin: lower left *
%MOIN*%
%FSLAX25Y25*%
%LNFRONT*%
%ADD11C,0.0250*%
%ADD12C,0.0600*%
%ADD13C,0.0200*%
%ADD14C,0.0500*%
%ADD15C,0.0550*%
%ADD16C,0.0380*%
%ADD17C,0.0280*%
%ADD18C,0.0300*%
G54D11*X211614Y387531D02*Y366534D01*
X199409Y343857D02*X182676Y360590D01*
X123268D01*
X205670D02*X181496D01*
X211614Y366534D02*X205670Y360590D01*
X211576Y387569D02*X211614Y387531D01*
X45473Y595512D02*X45748Y595237D01*
X105473Y595512D02*Y378385D01*
X45748Y595237D02*Y352244D01*
Y352243D02*X61338Y336653D01*
X126969D01*
X123268Y360590D02*X105473Y378385D01*
X225945Y433385D02*X112520D01*
X105473Y440432D01*
X221576Y417569D02*X221575Y417570D01*
Y427086D01*
X215315Y433345D01*
X226614Y160201D02*Y220511D01*
X212322Y145909D02*X226614Y160201D01*
X231576Y417569D02*X231575Y417570D01*
Y427755D01*
X225945Y433385D01*
X186142Y267597D02*X181655D01*
X181493Y220123D02*X181690Y220320D01*
X181493Y220123D02*X181655Y220285D01*
Y237597D01*
X191811Y235117D02*Y261928D01*
X181655Y307597D02*X191417D01*
X126969Y336653D02*X145828Y317794D01*
Y298228D01*
X145865Y298191D01*
X191811Y261928D02*X186142Y267597D01*
X211655D02*X226614Y252638D01*
X211655Y277597D02*Y267597D01*
X181655D02*Y277597D01*
X145865Y298191D02*Y237519D01*
X145672Y237326D01*
Y220117D01*
X145678Y220123D01*
X181493D01*
X199094Y227834D02*X191811Y235117D01*
X219291Y227834D02*X199094D01*
X226614Y220511D02*X219291Y227834D01*
X181690Y220320D02*X212281D01*
X226614Y252638D02*Y219763D01*
X211655Y237597D02*X199409Y249843D01*
Y343857D01*
X211655Y307597D02*X206063D01*
X199409Y314251D01*
X191417Y307597D02*X199409Y315589D01*
Y315590D01*
G54D12*X75473Y595512D03*
X65473D03*
X55473D03*
X45473D03*
G54D13*G36*
X102473Y598512D02*Y592512D01*
X108473D01*
Y598512D01*
X102473D01*
G37*
G54D12*X95473Y595512D03*
X85473D03*
X35473D03*
X25473D03*
X15473D03*
G54D13*G36*
X238536Y598630D02*Y592630D01*
X244536D01*
Y598630D01*
X238536D01*
G37*
G54D12*X251536Y595630D03*
X261536D03*
X271536D03*
X281536D03*
X291536D03*
G54D13*G36*
X95690Y300768D02*Y295768D01*
X100690D01*
Y300768D01*
X95690D01*
G37*
G54D14*X68190Y298268D03*
G54D13*G36*
X143328Y300728D02*Y295728D01*
X148328D01*
Y300728D01*
X143328D01*
G37*
G54D14*X115828Y298228D03*
G54D13*G36*
X29559Y333117D02*Y327117D01*
X35559D01*
Y333117D01*
X29559D01*
G37*
G54D12*X32559Y320117D03*
G54D13*G36*
X178655Y310597D02*Y304597D01*
X184655D01*
Y310597D01*
X178655D01*
G37*
G54D12*X211655Y307597D03*
X181655Y297597D03*
X211655Y287597D03*
Y297597D03*
X181655Y287597D03*
Y277597D03*
Y267597D03*
Y257597D03*
Y247597D03*
G54D13*G36*
X248689Y359808D02*Y354308D01*
X254189D01*
Y359808D01*
X248689D01*
G37*
G54D12*X251576Y387569D03*
X261576D03*
X271576D03*
X281576D03*
X251550Y375536D03*
G54D15*X251439Y327058D03*
G54D13*G36*
X228879Y359716D02*Y354216D01*
X234379D01*
Y359716D01*
X228879D01*
G37*
G54D15*X231629Y326966D03*
G54D13*G36*
X228550Y378536D02*Y372536D01*
X234550D01*
Y378536D01*
X228550D01*
G37*
G36*
X148576Y390569D02*Y384569D01*
X154576D01*
Y390569D01*
X148576D01*
G37*
G54D12*X161576Y387569D03*
X171576D03*
X181576D03*
X191576D03*
X201576D03*
X211576D03*
Y417569D03*
X221576Y387569D03*
X231576D03*
X241576D03*
X201576Y417569D03*
X191576D03*
X181576D03*
X171576D03*
X161576D03*
X151576D03*
X231576D03*
X221576D03*
X241576D03*
X251576D03*
X261576D03*
X271576D03*
X281576D03*
G54D13*G36*
X178992Y178056D02*Y173056D01*
X183992D01*
Y178056D01*
X178992D01*
G37*
G54D14*X181492Y145556D03*
G54D13*G36*
X142922Y222867D02*Y217367D01*
X148422D01*
Y222867D01*
X142922D01*
G37*
G54D15*X145672Y190117D03*
G54D13*G36*
X178993Y222623D02*Y217623D01*
X183993D01*
Y222623D01*
X178993D01*
G37*
G54D14*X181493Y190123D03*
G54D12*X290827Y166023D03*
G54D13*G36*
X209822Y178409D02*Y173409D01*
X214822D01*
Y178409D01*
X209822D01*
G37*
G54D14*X212322Y145909D03*
G54D13*G36*
X95729Y239941D02*Y234941D01*
X100729D01*
Y239941D01*
X95729D01*
G37*
G54D14*X68229Y237441D03*
G54D13*G36*
X143365Y240019D02*Y235019D01*
X148365D01*
Y240019D01*
X143365D01*
G37*
G54D14*X115865Y237519D03*
G54D13*G36*
X209781Y222820D02*Y217820D01*
X214781D01*
Y222820D01*
X209781D01*
G37*
G54D12*X181655Y237597D03*
X211655D03*
G54D14*X212281Y190320D03*
G54D13*G36*
X287827Y179023D02*Y173023D01*
X293827D01*
Y179023D01*
X287827D01*
G37*
G54D12*X211655Y247597D03*
Y257597D03*
Y267597D03*
Y277597D03*
G54D16*G54D13*G54D16*G54D17*G54D18*G54D17*G54D18*G54D17*G54D13*G54D18*G54D13*G54D16*G54D13*G54D17*G54D13*G54D16*G54D17*M02*
