M48
INCH
T15C0.038
T16C0.030
T17C0.028
%
T17
X023155Y037553
X025155Y037553
X024157Y038756
X025157Y038756
X026157Y038756
X027157Y038756
X028157Y038756
X024157Y041756
X025157Y041756
X026157Y041756
X027157Y041756
X028157Y041756
X018165Y030759
X018165Y029759
X018165Y028759
X018165Y027759
X018165Y026759
X021165Y026759
X021165Y027759
X021165Y028759
X021165Y029759
X021165Y030759
X018165Y025759
X021165Y025759
X018165Y024759
X018165Y023759
X021165Y023759
X021165Y024759
X015157Y038756
X015157Y041756
X016157Y038756
X017157Y038756
X018157Y038756
X019157Y038756
X020157Y038756
X021157Y038756
X022157Y038756
X023157Y038756
X023157Y041756
X022157Y041756
X021157Y041756
X020157Y041756
X019157Y041756
X018157Y041756
X017157Y041756
X016157Y041756
T16
X025143Y035705
X023162Y035696
X025143Y032705
X023162Y032696
X018146Y019009
X018146Y022009
X018154Y014544
X018154Y017544
X021229Y019033
X021229Y022033
X021233Y014592
X021233Y017592
X014567Y022011
X014567Y019011
X009812Y029829
X011576Y029825
X009820Y023746
X011580Y023746
X014576Y029825
X014580Y023746
X006812Y029829
X006820Y023746
T15
X024153Y059563
X025153Y059563
X026153Y059563
X027153Y059563
X028153Y059563
X029153Y059563
X029082Y017602
X029082Y016602
X010547Y059551
X009547Y059551
X008547Y059551
X007547Y059551
X006547Y059551
X005547Y059551
X004547Y059551
X003547Y059551
X002547Y059551
X001547Y059551
X003255Y033011
X003255Y032011
M30
