<?xml version="1.0" encoding="UTF-8" standalone="no"?>
<!-- Created with Inkscape (http://www.inkscape.org/) -->
<svg
   xmlns:dc="http://purl.org/dc/elements/1.1/"
   xmlns:cc="http://creativecommons.org/ns#"
   xmlns:rdf="http://www.w3.org/1999/02/22-rdf-syntax-ns#"
   xmlns:svg="http://www.w3.org/2000/svg"
   xmlns="http://www.w3.org/2000/svg"
   xmlns:xlink="http://www.w3.org/1999/xlink"
   xmlns:sodipodi="http://sodipodi.sourceforge.net/DTD/sodipodi-0.dtd"
   xmlns:inkscape="http://www.inkscape.org/namespaces/inkscape"
   width="425.19684"
   height="70.866142"
   id="svg2"
   sodipodi:version="0.32"
   inkscape:version="0.46"
   version="1.0"
   sodipodi:docname="tecnologias.svg"
   inkscape:output_extension="org.inkscape.output.svg.inkscape">
  <defs
     id="defs4">
    <inkscape:perspective
       sodipodi:type="inkscape:persp3d"
       inkscape:vp_x="0 : 526.18109 : 1"
       inkscape:vp_y="0 : 1000 : 0"
       inkscape:vp_z="744.09448 : 526.18109 : 1"
       inkscape:persp3d-origin="372.04724 : 350.78739 : 1"
       id="perspective10" />
    <inkscape:perspective
       id="perspective25"
       inkscape:persp3d-origin="238.06416 : 47.016144 : 1"
       inkscape:vp_z="476.12833 : 70.524216 : 1"
       inkscape:vp_y="0 : 1000 : 0"
       inkscape:vp_x="0 : 70.524216 : 1"
       sodipodi:type="inkscape:persp3d" />
    <inkscape:perspective
       id="perspective2415"
       inkscape:persp3d-origin="372.04724 : 350.78739 : 1"
       inkscape:vp_z="744.09448 : 526.18109 : 1"
       inkscape:vp_y="0 : 1000 : 0"
       inkscape:vp_x="0 : 526.18109 : 1"
       sodipodi:type="inkscape:persp3d" />
    <inkscape:perspective
       sodipodi:type="inkscape:persp3d"
       inkscape:vp_x="0 : 526.18109 : 1"
       inkscape:vp_y="0 : 1000 : 0"
       inkscape:vp_z="744.09448 : 526.18109 : 1"
       inkscape:persp3d-origin="372.04724 : 350.78739 : 1"
       id="perspective2485" />
    <inkscape:perspective
       sodipodi:type="inkscape:persp3d"
       inkscape:vp_x="0 : 526.18109 : 1"
       inkscape:vp_y="0 : 1000 : 0"
       inkscape:vp_z="744.09448 : 526.18109 : 1"
       inkscape:persp3d-origin="372.04724 : 350.78739 : 1"
       id="perspective2410" />
    <inkscape:perspective
       id="perspective2433"
       inkscape:persp3d-origin="372.04724 : 350.78739 : 1"
       inkscape:vp_z="744.09448 : 526.18109 : 1"
       inkscape:vp_y="0 : 1000 : 0"
       inkscape:vp_x="0 : 526.18109 : 1"
       sodipodi:type="inkscape:persp3d" />
    <inkscape:perspective
       id="perspective2450"
       inkscape:persp3d-origin="372.04724 : 350.78739 : 1"
       inkscape:vp_z="744.09448 : 526.18109 : 1"
       inkscape:vp_y="0 : 1000 : 0"
       inkscape:vp_x="0 : 526.18109 : 1"
       sodipodi:type="inkscape:persp3d" />
    <inkscape:perspective
       id="perspective2463"
       inkscape:persp3d-origin="372.04724 : 350.78739 : 1"
       inkscape:vp_z="744.09448 : 526.18109 : 1"
       inkscape:vp_y="0 : 1000 : 0"
       inkscape:vp_x="0 : 526.18109 : 1"
       sodipodi:type="inkscape:persp3d" />
    <inkscape:perspective
       id="perspective36"
       inkscape:persp3d-origin="360 : 240 : 1"
       inkscape:vp_z="720 : 360 : 1"
       inkscape:vp_y="0 : 1000 : 0"
       inkscape:vp_x="0 : 360 : 1"
       sodipodi:type="inkscape:persp3d" />
    <inkscape:perspective
       id="perspective2535"
       inkscape:persp3d-origin="372.04724 : 350.78739 : 1"
       inkscape:vp_z="744.09448 : 526.18109 : 1"
       inkscape:vp_y="0 : 1000 : 0"
       inkscape:vp_x="0 : 526.18109 : 1"
       sodipodi:type="inkscape:persp3d" />
    <inkscape:perspective
       id="perspective2617"
       inkscape:persp3d-origin="300 : 233.33333 : 1"
       inkscape:vp_z="600 : 350 : 1"
       inkscape:vp_y="0 : 1000 : 0"
       inkscape:vp_x="0 : 350 : 1"
       sodipodi:type="inkscape:persp3d" />
  </defs>
  <sodipodi:namedview
     id="base"
     pagecolor="#ffffff"
     bordercolor="#666666"
     borderopacity="1.0"
     inkscape:pageopacity="0.0"
     inkscape:pageshadow="2"
     inkscape:zoom="1.4491"
     inkscape:cx="235.53647"
     inkscape:cy="-66.514876"
     inkscape:document-units="cm"
     inkscape:current-layer="layer1"
     showgrid="false"
     units="cm"
     inkscape:window-width="1024"
     inkscape:window-height="737"
     inkscape:window-x="0"
     inkscape:window-y="6" />
  <metadata
     id="metadata7">
    <rdf:RDF>
      <cc:Work
         rdf:about="">
        <dc:format>image/svg+xml</dc:format>
        <dc:type
           rdf:resource="http://purl.org/dc/dcmitype/StillImage" />
      </cc:Work>
    </rdf:RDF>
  </metadata>
  <g
     inkscape:label="Capa 1"
     inkscape:groupmode="layer"
     id="layer1">
    <rect
       style="fill:#000000;fill-opacity:1;stroke:#ffffff;stroke-width:0;stroke-linecap:round;stroke-linejoin:round;stroke-miterlimit:4;stroke-dasharray:none;stroke-opacity:1"
       id="rect3415"
       width="425.19684"
       height="70.866142"
       x="0"
       y="0" />
    <image
       y="4.8201985"
       x="253.0992"
       id="image2417"
       height="35.433071"
       width="80.586723"
       sodipodi:absref="/home/digitalfredy/altaimpedancia/rolin/misc/AVR-logo.png"
       xlink:href="AVR-logo.png" />
    <g
       transform="matrix(5.6422943e-2,0,0,-5.6422943e-2,308.06877,70.382695)"
       stroke-miterlimit="16"
       clip-rule="evenodd"
       id="g6"
       style="fill:#ffffff;fill-rule:evenodd;stroke-linecap:butt;stroke-linejoin:bevel;stroke-miterlimit:16">
      <g
         id="g8"
         style="fill:#ffffff">
        <g
           id="g10"
           style="fill:#ffffff">
          <path
             d="M 728.375,72.2266 L 582.4219,72.2266 L 537.8438,184.0234 L 294.5703,184.0234 L 254.0313,72.2266 L 110.7266,72.2266 L 329.8125,636.4219 L 486.8828,636.4219 L 728.375,72.2266 z M 410.1797,501.75 L 330.5078,282.6719 L 498.0078,282.6719 L 410.1797,501.75 z"
             id="path12"
             style="fill:#ffffff;fill-rule:nonzero" />
          <path
             d="M 1002.9219,636.4219 C 1114.4922,636.4219 1180.6172,559.0078 1180.6172,474.6016 C 1180.6172,412.5938 1149.5781,365.9922 1087.3359,336.3516 C 1143.0391,307.3281 1160,237.8594 1236.4766,72.2266 L 1087.3359,72.2266 C 1028.9844,193.2813 1007.6719,301.5 934.1484,301.5 L 895.1719,301.5 L 895.1719,72.2266 L 759.6484,72.2266 L 759.6484,636.4219 L 1002.9219,636.4219 z M 895.1719,405.125 L 967.1406,405.125 C 1004.4844,405.125 1041.2031,421.4609 1041.2031,469.6172 C 1041.2031,511.7109 1014.9063,533.2578 963.7891,533.2578 L 895.1719,533.2578 L 895.1719,405.125 z"
             id="path14"
             style="fill:#ffffff;fill-rule:nonzero" />
          <path
             d="M 1741,636.4219 L 1859.1016,636.4219 L 1859.1016,72.2266 L 1723.5781,72.2266 L 1723.5781,424.8047 L 1577.0781,247.8125 L 1556.0781,247.8125 L 1409.4219,424.8047 L 1409.4219,72.2266 L 1273.8203,72.2266 L 1273.8203,636.4219 L 1391.7656,636.4219 L 1566.5,427.2969 L 1741,636.4219 z"
             id="path16"
             style="fill:#ffffff;fill-rule:nonzero" />
        </g>
        <path
           d="M 1960.0859,529.8359 C 1934.2578,529.8359 1913.6406,551.5391 1913.6406,578.0703 C 1913.6406,604.5234 1934.2578,626.2266 1960.0859,626.2266 C 1985.6016,626.2266 2005.9844,604.5234 2005.9844,578.0703 C 2005.9844,551.5391 1985.6016,529.8359 1960.0859,529.8359 z M 1960.0859,519.6406 C 1991.0469,519.6406 2015.2422,545.7109 2015.2422,578.0703 C 2015.2422,610.2031 1991.0469,636.4219 1960.0859,636.4219 C 1928.8125,636.4219 1903.6797,610.2031 1903.6797,578.0703 C 1903.6797,545.7109 1928.8125,519.6406 1960.0859,519.6406 z M 1956.8984,574.4141 C 1960.4766,574.1797 1963.8984,574.4141 1966.3828,571.6953 C 1969.3438,568.3438 1969.3438,562.8984 1970.0469,556.9844 C 1970.6641,552.9453 1971.6016,548.8203 1972.2969,544.7734 L 1985.3672,544.7734 C 1983.1094,550.9219 1982.2578,558.1563 1981.5547,564.6875 C 1980.625,571.9219 1979.5313,576.2031 1970.4297,578.0703 L 1970.4297,578.3047 C 1979.3047,580.0938 1983.8125,586.3984 1983.8125,594.3281 C 1983.8125,609.7344 1971.3672,612.9219 1959.1484,612.9219 L 1937.6797,612.9219 L 1937.6797,544.7734 L 1948.0234,544.7734 L 1948.0234,574.4141 L 1956.8984,574.4141 z M 1948.0234,584.8438 L 1948.0234,602.5 L 1960.4766,602.5 C 1968.875,602.5 1971.1328,599.7734 1971.1328,594.7969 C 1971.1328,589.3516 1968.875,585.3047 1958.9141,584.8438 L 1948.0234,584.8438 z"
           id="path18"
           style="fill:#ffffff;fill-rule:nonzero" />
      </g>
    </g>
    <g
       id="g3468"
       transform="matrix(0.8570602,0,0,0.8570602,91.091256,-42.840438)">
      <rect
         y="58.977005"
         x="303.43994"
         height="22.504227"
         width="54.591553"
         id="rect2491"
         style="fill:none;fill-opacity:1;stroke:#ffffff;stroke-width:1.43757999;stroke-linecap:round;stroke-linejoin:round;stroke-miterlimit:4;stroke-dasharray:none;stroke-opacity:1" />
      <text
         sodipodi:linespacing="125%"
         id="text3263"
         y="77.351204"
         x="307.2569"
         style="font-size:19.48589325px;font-style:normal;font-variant:normal;font-weight:normal;font-stretch:normal;text-align:justify;line-height:125%;writing-mode:lr-tb;text-anchor:start;fill:#ffffff;fill-opacity:1;stroke:none;stroke-width:1px;stroke-linecap:butt;stroke-linejoin:miter;stroke-opacity:1;font-family:URW Gothic L;-inkscape-font-specification:URW Gothic L"
         xml:space="preserve"><tspan
           y="77.351204"
           x="307.2569"
           id="tspan3267"
           sodipodi:role="line">IOIOI</tspan></text>
    </g>
    <g
       id="g2590"
       transform="translate(-67.356643,-65.205905)">
      <polygon
         style="font-style:normal;font-variant:normal;font-weight:normal;font-stretch:normal;letter-spacing:normal;word-spacing:normal;text-anchor:start;fill:#000000;fill-opacity:1;stroke:#ffffff;stroke-width:0;stroke-linecap:butt;stroke-linejoin:miter;stroke-miterlimit:10.43299961;stroke-dasharray:none;stroke-dashoffset:0;stroke-opacity:1"
         id="polygon9"
         points="201.26,324.57 394.02,324.57 394.02,517.32 201.26,517.32 201.26,324.57 "
         transform="matrix(0.3676583,0,0,-0.1838292,65.558152,196.19592)" />
      <g
         transform="translate(0.7376734,1.1914324)"
         id="g2578">
        <path
           d="M 191.74526,129.78832 L 192.22321,129.77361 L 192.6975,129.73684 L 193.16442,129.67802 L 193.624,129.59346 L 194.07623,129.49051 L 194.52107,129.36183 L 194.95492,129.21477 L 195.38139,129.04565 L 195.79686,128.85814 L 196.20127,128.64858 L 196.59101,128.42431 L 196.97337,128.17797 L 197.34103,127.91694 L 197.69398,127.63752 L 198.03591,127.34339 L 198.3631,127.03088 L 198.67195,126.70366 L 198.96974,126.36542 L 199.24918,126.00879 L 199.51021,125.64113 L 199.75286,125.26244 L 199.98081,124.86905 L 200.19038,124.46462 L 200.37787,124.04917 L 200.54701,123.62636 L 200.69407,123.19253 L 200.81907,122.74766 L 200.9257,122.29544 L 201.01027,121.83587 L 201.06908,121.36527 L 201.10583,120.89099 L 201.11686,120.41303 L 201.11686,114.83198 C 201.11686,109.67741 196.89615,105.45669 191.74526,105.45669 L 155.03456,105.45669 C 149.88367,105.45669 145.65928,109.67741 145.65928,114.83198 L 145.65928,120.41303 C 145.65928,125.56392 149.88367,129.78832 155.03456,129.78832 L 191.74526,129.78832 z"
           id="path11"
           style="font-style:normal;font-variant:normal;font-weight:normal;font-stretch:normal;letter-spacing:normal;word-spacing:normal;text-anchor:start;fill:#ffffff;fill-opacity:1;stroke:#030405;stroke-width:0;stroke-linecap:butt;stroke-linejoin:miter;stroke-miterlimit:10.43299961;stroke-dasharray:none;stroke-dashoffset:0;stroke-opacity:1" />
        <path
           d="M 174.64179,120.41303 L 174.64179,114.83198 C 174.64179,110.60758 178.07573,107.24718 182.2266,107.24718 L 191.74526,107.24718 C 195.89246,107.24718 199.25653,110.60758 199.25653,114.83198 L 199.25653,120.41303 C 199.25653,124.56389 195.89246,127.99782 191.74526,127.99782 C 191.74526,127.99782 177.78896,127.99782 170.77771,127.99782 C 173.13808,126.28086 174.64179,123.56018 174.64179,120.41303 z"
           id="path13"
           style="font-style:normal;font-variant:normal;font-weight:normal;font-stretch:normal;letter-spacing:normal;word-spacing:normal;text-anchor:start;fill:#000000;fill-opacity:1;stroke:#ffffff;stroke-width:0;stroke-linecap:butt;stroke-linejoin:miter;stroke-miterlimit:10.43299961;stroke-dasharray:none;stroke-dashoffset:0;stroke-opacity:1" />
        <path
           d="M 162.33258,123.34694 L 159.18543,123.34694 L 158.61188,120.6998 C 158.25525,118.83945 157.89495,116.54894 157.82511,115.68862 C 157.75524,116.54894 157.39494,118.83945 156.96479,120.6998 L 156.39492,123.34694 L 153.31761,123.34694 L 150.45355,111.18113 L 153.88748,111.18113 L 154.24779,113.25472 C 154.53455,114.97536 154.82134,117.04896 154.96105,118.48282 C 155.10443,117.04896 155.46473,114.97536 155.89123,113.25472 L 156.32137,111.18113 L 159.39868,111.18113 L 159.82882,113.25472 C 160.18545,114.97536 160.54576,117.04896 160.68917,118.48282 C 160.82887,117.04896 161.18918,114.97536 161.47594,113.25472 L 161.75906,111.18113 L 165.19664,111.18113 L 162.33258,123.34694 z"
           id="path15"
           style="font-style:normal;font-variant:normal;font-weight:normal;font-stretch:normal;letter-spacing:normal;word-spacing:normal;text-anchor:start;fill:#000000;fill-opacity:1;stroke:#ffffff;stroke-width:0;stroke-linecap:butt;stroke-linejoin:miter;stroke-miterlimit:10.43299961;stroke-dasharray:none;stroke-dashoffset:0;stroke-opacity:1" />
        <path
           d="M 168.27395,113.54517 L 168.17835,113.5415 L 168.08643,113.53782 L 167.99822,113.52679 L 167.90629,113.51576 L 167.82172,113.50105 L 167.73348,113.48267 L 167.65261,113.46429 L 167.56804,113.43855 L 167.49085,113.41281 L 167.41364,113.3834 L 167.33642,113.35031 L 167.26658,113.31355 L 167.19671,113.27311 L 167.12684,113.23266 L 167.06436,113.18854 L 167.00184,113.14075 L 166.94303,113.08928 L 166.88787,113.0378 L 166.83273,112.98265 L 166.78495,112.92383 L 166.73713,112.86501 L 166.6967,112.8025 L 166.65627,112.73632 L 166.62316,112.66647 L 166.59008,112.59661 L 166.56067,112.52308 L 166.53862,112.44955 L 166.52021,112.37234 L 166.50183,112.29146 L 166.4908,112.21057 L 166.48345,112.12601 L 166.48345,112.04145 C 166.48345,111.11127 167.27026,110.53773 168.27395,110.53773 C 169.34384,110.53773 170.13064,111.11127 170.13064,112.04145 C 170.13064,112.97163 169.34384,113.54517 168.27395,113.54517 z"
           id="path17"
           style="font-style:normal;font-variant:normal;font-weight:normal;font-stretch:normal;letter-spacing:normal;word-spacing:normal;text-anchor:start;fill:#000000;fill-opacity:1;stroke:#ffffff;stroke-width:0;stroke-linecap:butt;stroke-linejoin:miter;stroke-miterlimit:10.43299961;stroke-dasharray:none;stroke-dashoffset:0;stroke-opacity:1" />
        <polygon
           transform="matrix(0.3676583,0,0,-0.3676583,65.105333,273.06845)"
           points="276.32,407.23 284.89,407.23 284.89,431.17 276.32,431.17 276.32,407.23 "
           id="polygon19"
           style="font-style:normal;font-variant:normal;font-weight:normal;font-stretch:normal;letter-spacing:normal;word-spacing:normal;text-anchor:start;fill:#000000;fill-opacity:1;stroke:#ffffff;stroke-width:0;stroke-linecap:butt;stroke-linejoin:miter;stroke-miterlimit:10.43299961;stroke-dasharray:none;stroke-dashoffset:0;stroke-opacity:1" />
        <polygon
           transform="matrix(0.3676583,0,0,-0.3676583,65.105333,273.06845)"
           points="318.75,432.53 318.75,425.14 336.27,425.14 336.27,417.35 318.75,417.35 318.75,407.23 309.61,407.23 309.61,440.32 338.21,440.32 338.21,432.53 318.75,432.53 "
           id="polygon21"
           style="font-style:normal;font-variant:normal;font-weight:normal;font-stretch:normal;letter-spacing:normal;word-spacing:normal;text-anchor:start;fill:#ffffff;fill-opacity:1;stroke:#030405;stroke-width:0;stroke-linecap:butt;stroke-linejoin:miter;stroke-miterlimit:10.43299961;stroke-dasharray:none;stroke-dashoffset:0;stroke-opacity:1" />
        <path
           d="M 192.95853,113.54517 L 192.86661,113.5415 L 192.77471,113.53782 L 192.68279,113.52679 L 192.59455,113.51576 L 192.5063,113.50105 L 192.42176,113.48267 L 192.33719,113.46429 L 192.2563,113.43855 L 192.17911,113.41281 L 192.10189,113.3834 L 192.02467,113.35031 L 191.95483,113.31355 L 191.88496,113.27311 L 191.81513,113.23266 L 191.75261,113.18854 L 191.69012,113.14075 L 191.63128,113.08928 L 191.57615,113.0378 L 191.52098,112.98265 L 191.4732,112.92383 L 191.42539,112.86501 L 191.38495,112.8025 L 191.34452,112.73632 L 191.30773,112.66647 L 191.27833,112.59661 L 191.24892,112.52308 L 191.22687,112.44955 L 191.20482,112.37234 L 191.19008,112.29146 L 191.17906,112.21057 L 191.17171,112.12601 L 191.17171,112.04145 C 191.17171,111.11127 191.95851,110.53773 192.95853,110.53773 C 194.03209,110.53773 194.81889,111.11127 194.81889,112.04145 C 194.81889,112.97163 194.03209,113.54517 192.95853,113.54517 z"
           id="path23"
           style="font-style:normal;font-variant:normal;font-weight:normal;font-stretch:normal;letter-spacing:normal;word-spacing:normal;text-anchor:start;fill:#ffffff;fill-opacity:1;stroke:#030405;stroke-width:0;stroke-linecap:butt;stroke-linejoin:miter;stroke-miterlimit:10.43299961;stroke-dasharray:none;stroke-dashoffset:0;stroke-opacity:1" />
        <polygon
           transform="matrix(0.3676583,0,0,-0.3676583,65.105333,273.06845)"
           points="343.47,407.23 352.04,407.23 352.04,431.17 343.47,431.17 343.47,407.23 "
           id="polygon25"
           style="font-style:normal;font-variant:normal;font-weight:normal;font-stretch:normal;letter-spacing:normal;word-spacing:normal;text-anchor:start;fill:#ffffff;fill-opacity:1;stroke:#030405;stroke-width:0;stroke-linecap:butt;stroke-linejoin:miter;stroke-miterlimit:10.43299961;stroke-dasharray:none;stroke-dashoffset:0;stroke-opacity:1" />
        <polygon
           transform="matrix(0.3676583,0,0,-0.3676583,65.105333,273.06845)"
           points="374.61,450.83 374.61,444.6 373.05,444.6 373.05,450.83 370.72,450.83 370.72,452.39 376.75,452.39 376.75,450.83 374.61,450.83 "
           id="polygon27"
           style="font-style:normal;font-variant:normal;font-weight:normal;font-stretch:normal;letter-spacing:normal;word-spacing:normal;text-anchor:start;fill:#ffffff;fill-opacity:1;stroke:#030405;stroke-width:0;stroke-linecap:butt;stroke-linejoin:miter;stroke-miterlimit:10.43299961;stroke-dasharray:none;stroke-dashoffset:0;stroke-opacity:1" />
        <path
           d="M 206.26775,109.60755 L 206.26775,108.53399 C 206.26775,108.3906 206.26775,108.03397 206.26775,107.89059 C 206.19792,108.03397 206.12805,108.24722 206.05454,108.3906 L 205.48098,109.67741 L 204.91111,108.3906 C 204.83756,108.24722 204.76772,108.03397 204.69418,107.89059 C 204.69418,108.03397 204.69418,108.3906 204.69418,108.53399 L 204.69418,109.60755 L 204.19417,109.60755 L 204.19417,106.74349 L 204.69418,106.74349 L 205.26773,108.03397 C 205.34128,108.17736 205.48098,108.3906 205.48098,108.53399 C 205.5545,108.3906 205.62436,108.17736 205.69791,108.03397 L 206.26775,106.74349 L 206.84131,106.74349 L 206.84131,109.60755 L 206.26775,109.60755 z"
           id="path29"
           style="font-style:normal;font-variant:normal;font-weight:normal;font-stretch:normal;letter-spacing:normal;word-spacing:normal;text-anchor:start;fill:#ffffff;fill-opacity:1;stroke:#030405;stroke-width:0;stroke-linecap:butt;stroke-linejoin:miter;stroke-miterlimit:10.43299961;stroke-dasharray:none;stroke-dashoffset:0;stroke-opacity:1" />
      </g>
    </g>
    <image
       y="34.880142"
       x="29.632471"
       id="image2537"
       height="35.433071"
       width="35.433071"
       sodipodi:absref="/home/digitalfredy/altaimpedancia/rolin/misc/ethernet-logo.jpg"
       xlink:href="ethernet-logo.jpg" />
    <image
       y="1.1144121"
       x="15.259256"
       id="image2452"
       height="35.433071"
       width="139.56291"
       sodipodi:absref="/home/digitalfredy/altaimpedancia/rolin/misc/OpenWRT.png"
       xlink:href="OpenWRT.png" />
    <g
       id="g3438"
       transform="translate(23.910175,1.6041589)">
      <rect
         ry="27.089458"
         y="1.1833243"
         x="154.21179"
         height="65.291176"
         width="68.952904"
         id="rect2643"
         style="fill:#ffffff;fill-opacity:1;stroke:#ffffff;stroke-width:0;stroke-linecap:round;stroke-linejoin:round;stroke-miterlimit:4;stroke-dasharray:none;stroke-opacity:1" />
      <g
         transform="matrix(0.9411768,0,0,0.9411768,7.8772189,1.6090897)"
         id="g3426">
        <g
           id="layer3"
           inkscape:label="white"
           transform="matrix(0.1022478,0,0,0.1022478,161.43731,-1.5531808)">
          <path
             transform="translate(-200.8403,-238.943)"
             style="fill:#ffffff;fill-opacity:1;stroke:none;stroke-width:3;stroke-miterlimit:4;stroke-opacity:1"
             d="M 495.0278,294.38362 C 478.93301,294.3693 476.23956,294.63895 465.49655,297.44612 C 452.29978,300.89446 444.57467,305.27388 435.55905,314.35237 C 431.04413,318.89878 428.68448,321.81751 426.5278,325.50862 C 421.00882,334.95418 417.4465,345.8458 415.1528,360.38362 C 414.02763,367.5151 413.91962,370.14871 413.9653,387.72737 C 414.01327,406.17889 416.20415,462.64469 417.5278,479.47737 C 418.40676,490.65491 417.96648,491.88631 408.62155,504.97737 C 405.34898,509.56181 400.74221,516.29674 398.37155,519.94612 C 392.09016,529.61566 383.20141,542.14541 375.87155,551.66487 C 362.44879,569.0973 359.01133,575.45765 350.5278,598.60237 C 342.25296,621.17779 337.30037,632.3802 325.18405,655.85237 C 319.0492,667.73702 317.43864,672.73802 317.05905,681.13362 C 316.73335,688.33759 317.67225,698.28845 318.8403,700.07112 C 319.67105,701.33901 320.75384,701.64755 322.9653,701.00862 C 322.71509,701.25449 322.50612,701.47751 322.30905,701.60237 C 318.75922,703.85153 314.78825,708.81658 312.2778,715.00862 C 312.22791,715.13167 312.17128,715.25949 312.12155,715.38362 C 311.22284,716.83378 310.23345,719.22708 308.9653,722.88362 C 305.42197,733.1003 302.38952,737.55915 297.0278,740.47737 C 292.37134,743.01173 288.30631,743.62457 276.2778,743.63362 C 263.90547,743.64293 261.20468,744.17834 257.49655,747.35237 C 250.93767,752.96654 249.88052,764.13687 254.43405,779.50862 C 258.54314,793.3801 258.28273,799.76321 252.99655,815.41487 C 250.08638,824.03152 249.68408,825.75168 249.68405,829.50862 C 249.68405,832.31036 249.9971,834.44604 250.5903,835.69612 C 251.86201,838.37605 256.02479,841.74689 260.0278,843.35237 C 264.46188,845.1308 287.13804,850.67928 303.30905,853.94612 C 328.39248,859.01346 337.35832,861.67869 360.7153,870.97737 C 381.38129,879.20475 390.22464,882.1991 397.2153,883.32112 C 400.47654,883.84453 407.3487,883.18252 410.4028,882.03987 C 414.10745,880.65375 417.57297,878.25799 425.2778,871.78987 C 438.85103,860.39528 446.3202,856.79567 461.5278,854.38362 C 467.18956,853.48562 472.3959,853.40677 515.87155,853.41487 C 542.3085,853.41976 565.62276,853.63184 567.7153,853.88362 C 572.60923,854.47254 574.51408,856.11767 578.55905,863.28987 C 584.94494,874.61289 592.59027,879.61736 606.5903,881.69612 C 613.22318,882.68103 624.49344,882.84582 629.6528,882.00862 C 641.13842,880.14472 646.78719,876.71454 659.6528,863.82112 C 674.72581,848.71546 688.69133,839.19128 708.43405,830.57112 C 718.43633,826.2039 722.90187,823.6887 734.74655,815.69612 C 749.20005,805.94314 751.99655,802.81681 751.99655,796.44612 C 751.99655,789.72941 748.38194,785.48766 735.0903,776.69612 C 722.37931,768.28864 716.73075,763.20759 711.43405,755.38362 C 707.73414,749.91833 706.42135,745.67423 705.9028,737.53987 C 705.65509,733.65415 705.33347,731.10782 704.8403,729.53987 C 704.31182,723.83696 701.97092,717.28339 697.93405,715.16487 C 692.23274,712.17286 690.24724,713.08237 688.3403,714.28987 C 694.74299,707.08697 696.80888,703.74321 698.87155,697.53987 C 702.55498,686.46217 701.80472,674.23164 695.4028,642.19612 C 687.96678,604.98592 675.38308,578.39761 649.4028,544.97737 C 632.86677,523.70593 626.17457,513.12884 610.0903,482.88362 C 602.08303,467.82658 599.83542,462.58146 597.9028,454.53987 C 595.07782,442.78511 593.83366,432.26451 591.7153,402.44612 C 589.7334,374.54872 588.3109,363.00817 585.74655,353.28987 C 578.79224,326.93459 558.08413,306.90474 529.18405,298.60237 C 516.85719,295.06113 511.55857,294.39834 495.0278,294.38362 z"
             id="path5483"
             sodipodi:nodetypes="cssssssssssssscsscssssssssssssssssssssssssssscscssssssssc" />
        </g>
        <g
           id="g3417">
          <g
             style="fill:#ffffff"
             transform="matrix(0.1022478,0,0,0.1022478,140.90183,-25.984577)"
             inkscape:label="orange"
             id="g2624">
            <path
               sodipodi:nodetypes="cccccccc"
               id="path3688"
               d="M 551.98459,300.38961 C 551.98459,325.48055 522.12391,330.77308 507.61246,339.79286 C 494.10101,352.31265 416.43878,387.5597 395.83568,387.5597 C 362.69578,380.63196 322.36146,331.15377 317.18677,298.38961 C 317.18677,279.29867 341.54745,264.00614 355.0589,251.48636 C 368.57035,238.96657 384.23258,227.21952 410.83568,232.21952 C 431.43878,232.21952 463.60101,241.96657 477.11246,254.48636 C 504.12391,263.50614 551.98459,269.29867 551.98459,300.38961 z"
               style="fill:#ffffff;fill-opacity:1;stroke:none;stroke-width:3;stroke-miterlimit:4;stroke-opacity:1"
               transform="matrix(0.55569,0,0,0.55569,249.6684,292.4824)" />
            <path
               sodipodi:nodetypes="cccccssccc"
               id="path3690"
               d="M 7.5967654,971.14246 C 38.35459,985.11217 110.0025,1002.8249 135.24932,1006.2955 C 152.10764,1013.3611 263.68786,1039.3939 289.39447,1039.3939 C 327.48411,1011.8317 333.76975,971.09313 323.06586,929.67461 C 275.58854,852.99845 238.8997,752.47466 150.14658,717.89502 C 141.15076,722.278 133.90661,734.17559 130.6994,736.20767 C 124.31126,740.25518 117.19604,749.2012 112.67832,760.34416 C 107.98867,771.91119 103.69968,786.08951 98.456143,806.76397 C 88.199249,827.40276 46.310558,808.84373 17.620078,823.75602 C 7.163795,855.54453 25.013131,933.67666 7.5967654,971.14246 z"
               style="fill:#ffffff;fill-opacity:1;stroke:none;stroke-width:3;stroke-miterlimit:4;stroke-opacity:1"
               transform="matrix(0.55569,0,0,0.55569,249.6684,292.4824)" />
            <path
               style="fill:#ffffff;fill-opacity:1;stroke:none;stroke-width:3;stroke-miterlimit:4;stroke-opacity:1"
               d="M 834.21239,853.63185 C 853.41936,869.33333 883.47262,880.97675 897.07689,907.05439 C 871.222,937.98392 848.89327,948.88892 816.06834,964.48733 C 771.07072,985.8702 742.91467,1006.4307 722.27937,1019.9666 C 701.67627,1038.0437 653.94608,1048.5795 632.21848,1046.0225 C 618.5367,1036.528 603.09943,927.73936 608.0867,892.04579 C 608.0867,872.95485 584.81238,796.91159 622.05008,750.49716 C 658.15796,743.62648 689.24823,776.55301 712.11098,799.14944 C 731.0214,786.39265 760.89685,766.94179 783.49227,761.95872 C 790.91473,760.32181 791.2494,752.56185 806.69116,760.66556 C 814.11427,764.56115 818.35684,776.7962 819.18281,787.20973 C 820.51282,803.97804 822.16093,839.57972 834.21239,853.63185 z"
               id="path2800"
               sodipodi:nodetypes="ccscccccsssc"
               transform="matrix(0.55569,0,0,0.55569,249.6684,292.4824)" />
          </g>
          <g
             transform="matrix(0.1022478,0,0,0.1022478,140.90183,-25.984577)"
             inkscape:label="black"
             id="layer2">
            <g
               transform="matrix(0.55569,0,0,0.55569,249.6684,292.4824)"
               id="g5475">
              <path
                 style="fill:#000000"
                 d="M 265.52196,1063.2498 C 252.94184,1061.2307 237.00862,1055.8445 199.81884,1041.0388 C 157.78642,1024.3052 141.66121,1019.5229 96.52196,1010.4039 C 67.42119,1004.525 26.61492,994.53339 18.63549,991.33299 C 11.4318,988.44379 3.94005,982.35719 1.65154,977.53449 C 0.58404,975.28489 0.02196,971.44569 0.02196,966.40379 C 0.02196,959.64289 0.74676,956.56118 5.98381,941.05495 C 15.4966,912.88881 15.95604,901.36533 8.56146,876.4027 C 0.36712,848.74024 2.28384,828.6821 14.08697,818.57905 C 20.76001,812.86718 25.62201,811.90468 47.8868,811.88792 C 69.53289,811.87162 76.84413,810.75712 85.22373,806.19637 C 94.87249,800.94486 100.30485,792.93214 106.68129,774.54656 C 110.81776,762.61963 113.47473,757.9027 116.05652,757.9027 C 118.23484,757.9027 120.01298,763.07884 120.00707,769.4027 C 120.00186,774.97628 113.71487,798.60179 110.6024,804.74397 C 107.27617,811.30795 102.7939,816.36601 97.6125,819.40251 C 87.92711,825.07853 69.28141,826.63238 48.82497,823.46826 C 35.75464,821.44658 28.25103,821.86891 23.25457,824.90744 C 15.84692,829.4123 14.63508,839.53312 20.00977,852.00667 C 30.41102,876.14586 32.40485,881.25764 34.59589,889.4027 C 37.21406,899.13555 37.62877,907.57028 35.98668,917.68931 C 34.3604,927.71085 31.4886,933.95595 22.99581,945.9396 C 18.62317,952.10957 14.60969,958.73631 14.07696,960.66571 C 12.58171,966.08109 14.7868,970.24309 20.75287,973.26639 C 25.81084,975.82939 97.96801,994.45919 149.02196,1006.3832 C 164.69696,1010.0442 193.28457,1017.0375 212.54997,1021.9237 C 231.81538,1026.81 251.84038,1031.3303 257.04997,1031.9689 C 273.05071,1033.9302 288.0008,1031.6214 298.27056,1025.6029 C 312.63588,1017.1843 322.608,996.29479 323.78441,972.15679 C 324.55873,956.26894 321.05062,942.04298 311.77776,923.46784 C 304.72961,909.34919 301.24716,903.80228 267.47566,852.9027 C 208.00992,763.27739 182.1745,733.39775 160.20163,728.8362 C 153.14841,727.37196 148.36445,728.18445 138.91336,732.45173 C 129.75312,736.5877 126.65865,736.80404 124.4686,733.46161 C 122.3666,730.25355 120.68998,712.36671 121.27609,699.4027 C 121.95916,684.29429 124.85155,675.2899 135.89161,653.9027 C 157.69572,611.66302 166.6118,591.52862 181.50291,550.9027 C 196.76955,509.25229 202.96657,497.77348 227.12168,466.4027 C 240.31225,449.27182 256.29165,426.74423 267.59542,409.34326 C 271.86158,402.77595 280.17051,390.6527 286.05971,382.4027 C 302.87655,358.8445 303.66168,356.59385 302.07994,336.47915 C 299.69792,306.18766 295.74915,204.6074 295.66284,171.4027 C 295.58062,139.76878 295.78733,135.03711 297.81215,122.20355 C 301.93983,96.041796 308.33571,76.407716 318.26747,59.409808 C 322.14858,52.767421 326.39707,47.521753 334.52196,39.340193 C 350.74613,23.002859 364.65257,15.160222 388.40102,8.954702 C 407.73375,3.903018 412.55835,3.400952 441.52196,3.426735 C 471.27013,3.453216 480.83898,4.632329 503.02196,11.005021 C 555.02951,25.945666 592.30264,61.974678 604.81737,109.4027 C 609.43209,126.89141 611.94696,147.69953 615.51351,197.9027 C 619.32565,251.56281 621.57764,270.50181 626.66138,291.65525 C 630.13924,306.12662 634.19753,315.5574 648.60712,342.65352 C 677.5518,397.08174 689.57555,416.07064 719.3332,454.34997 C 766.08639,514.49186 788.72303,562.33784 802.10463,629.29998 C 813.6253,686.94998 815.01362,708.96767 808.38505,728.9027 C 804.39412,740.90517 800.50686,746.86607 786.79325,762.01247 C 757.96738,793.85008 725.94087,813.9027 703.91817,813.9027 C 683.87529,813.9027 665.56239,800.2687 652.5325,775.64594 C 646.35989,761.99833 647.16169,751.13088 629.70118,754.97482 C 621.22526,757.32845 614.23937,767.6127 612.08886,780.9027 C 610.54657,790.43392 610.80197,826.83139 612.47479,835.9027 C 613.23547,840.0277 615.55597,852.1777 617.63146,862.9027 C 621.21936,881.44297 621.40522,883.38704 621.4079,902.4027 C 621.41037,919.88748 620.99764,925.16944 618.12606,944.4027 C 615.43643,962.41729 614.90999,968.58349 615.22006,978.44089 C 615.5772,989.79549 615.80176,990.90659 619.17492,998.00949 C 623.25889,1006.6092 632.30198,1016.9488 640.13613,1021.976 C 657.29474,1032.9866 681.31179,1033.733 701.52196,1023.8836 C 707.15019,1021.1407 715.45139,1015.2123 729.52196,1003.8872 C 752.18043,985.64969 769.06556,973.90979 781.92922,967.44929 C 786.77425,965.01596 798.56467,960.50333 808.13016,957.42122 C 847.52257,944.72854 865.52355,937.09451 875.52196,928.84106 C 887.35702,919.0715 893.09611,908.60551 890.96274,900.68277 C 888.32573,890.88967 877.04963,883.9478 853.91344,877.87421 C 836.4577,873.29183 832.32934,871.20776 825.15258,863.35524 C 818.85019,856.45942 813.99351,846.578 810.43103,833.4027 C 806.92944,820.45261 806.41724,799.55979 809.40137,791.4027 C 811.51742,785.61848 813.63096,782.9027 816.01643,782.9027 C 818.83093,782.9027 820.19579,787.80201 821.03093,800.9027 C 821.96409,815.541 824.34109,823.20407 830.99932,833.03921 C 840.53107,847.11895 850.64772,856.23772 873.52196,871.36753 C 897.44113,887.18849 903.97804,894.81554 903.97804,906.9027 C 903.97804,918.36714 898.93832,923.98921 872.92832,941.54032 C 851.61305,955.92351 843.5812,960.46749 825.58146,968.32659 C 790.05316,983.83909 764.92096,1000.9659 737.79611,1028.1495 C 714.64362,1051.3521 704.47678,1057.5134 683.80767,1060.8676 C 674.52308,1062.3742 654.24453,1062.1204 642.30824,1060.348 C 617.11428,1056.6071 603.35749,1047.5633 591.86567,1027.1868 C 584.5865,1014.28 581.17559,1011.3185 572.36865,1010.2587 C 568.60298,1009.8056 526.59696,1009.4276 479.02196,1009.4188 C 400.78472,1009.4042 391.44591,1009.5734 381.25721,1011.1894 C 353.89017,1015.5301 340.44786,1021.9785 316.02196,1042.4838 C 302.15664,1054.1236 295.9004,1058.4303 289.23364,1060.9247 C 283.73758,1062.981 271.39078,1064.1917 265.52196,1063.2498 z M 355.66212,998.47869 C 357.86221,996.59549 361.18785,992.20799 363.05244,988.72869 C 366.08905,983.06239 366.48436,981.40019 366.84308,972.78979 C 367.49977,957.02694 364.09449,948.10106 352.92013,936.29512 C 345.22901,928.16929 344.11359,924.72933 348.51901,922.72209 C 352.59857,920.86332 357.78698,923.17278 367.06074,930.97535 C 384.74021,945.85015 395.1166,948.4412 433.52196,947.57117 C 474.81863,946.63564 497.27216,942.3045 520.02196,930.88589 C 534.71587,923.51071 544.37029,915.07503 556.71755,898.82267 C 565.3691,887.43487 569.34105,883.49661 574.23205,881.45664 C 582.32448,878.0814 586.60137,884.73264 586.41481,900.4027 C 586.32853,907.65026 585.49953,912.3334 582.15737,924.45391 C 573.19133,956.96957 570.37909,975.27339 572.9195,984.57969 C 574.40247,990.01229 579.12811,994.12289 583.41081,993.70569 C 586.41125,993.41329 586.54737,993.19219 587.28981,987.40269 C 587.71299,984.10269 589.40904,972.85269 591.05881,962.4027 C 592.70857,951.9527 594.73456,938.4527 595.56102,932.4027 C 597.7203,916.59582 599.3292,867.55835 599.43254,814.4027 C 599.52171,768.53294 599.52878,768.38297 601.92669,761.43276 C 603.78868,756.0359 605.48139,753.31732 609.42669,749.38738 C 615.47172,743.36588 621.24214,741.23462 634.09962,740.2746 L 642.67728,739.63414 L 643.92326,733.51842 C 646.76825,719.55426 655.07552,711.66357 671.52196,707.30373 C 676.82898,705.89687 682.14977,705.44259 693.52196,705.42539 C 710.03481,705.40041 714.59912,706.43317 729.49375,713.56464 C 736.15395,716.75351 742.02196,717.90373 742.02196,716.02035 C 742.02196,714.54229 733.91769,706.92934 727.37151,702.25809 C 723.97155,699.83193 718.11451,696.58886 714.35586,695.05127 C 709.31344,692.98851 707.44087,691.70553 707.21262,690.15711 C 707.04249,689.00291 708.50033,682.286 710.45228,675.23064 C 716.2664,654.21534 718.20518,640.85048 718.3334,620.9027 C 718.5449,587.99602 712.67037,566.23931 693.60308,529.31245 C 675.93226,495.09007 657.20061,469.97933 642.35505,460.61182 C 638.14415,457.95476 633.02196,456.15001 633.02196,457.32342 C 633.02196,457.67406 636.58111,463.01034 640.93117,469.18183 C 661.30963,498.09293 682.47635,535.03469 691.52795,557.48717 C 698.78516,575.48867 704.25813,599.86273 706.03248,622.08368 C 708.94031,658.49955 699.00365,689.60083 682.02196,697.23552 C 678.63038,698.76031 674.81249,699.35022 666.52196,699.63043 C 653.34128,700.07593 651.49589,699.35475 648.02733,692.4027 L 645.53269,687.4027 L 644.88221,647.4027 C 643.77414,579.26408 640.55302,567.66133 604.85267,503.21308 C 593.87167,483.38958 591.71011,478.16926 587.03982,460.19401 C 577.42698,423.19555 568.13081,401.50572 553.48448,381.9027 C 531.21102,352.09131 528.31737,339.7352 537.15109,312.1581 C 542.85861,294.3404 542.75252,285.07524 536.77087,278.95709 C 532.37757,274.4635 528.96124,272.94271 508.85828,266.53164 C 478.38626,256.81376 464.2933,248.11736 460.39059,236.6235 C 456.52959,225.25249 459.31322,206.92068 466.28978,197.77378 C 471.29577,191.21049 477.6918,188.39491 487.49805,188.43776 C 493.95538,188.46598 496.60469,188.97382 501.06759,191.03887 C 508.04309,194.26655 513.51631,199.03332 516.30327,204.30802 C 519.28583,209.95293 519.17634,223.45001 516.06725,233.4027 C 511.04382,249.48354 511.17352,247.75543 514.75017,250.95116 C 521.33408,256.83388 531.56075,257.30008 536.10965,251.92486 C 539.99891,247.3291 541.17714,242.61185 541.73501,229.4027 C 542.34465,214.96763 540.78163,205.38398 534.86551,187.28222 C 526.75473,162.46538 518.65801,155.29923 494.21426,151.30306 C 475.91012,148.31062 465.93012,150.68175 456.71612,160.21218 C 442.25592,175.16897 435.14516,199.08832 438.00641,223.14832 C 439.58664,236.43624 439.29273,236.97861 431.78517,234.62922 C 425.06237,232.52541 410.41996,230.81735 401.93253,231.14687 C 392.76577,231.50276 392.02634,230.71203 392.00463,220.53026 C 391.91599,178.95569 379.42217,156.42836 356.52196,156.55222 C 340.58772,156.6384 327.70659,168.652 322.90757,187.9027 C 321.03574,195.41131 321.35231,216.882 323.51946,229.4027 C 327.78369,254.03939 337.14423,266.28284 344.35301,256.6527 C 347.3623,252.63263 350.0355,247.43137 349.98097,245.70236 C 349.95843,244.98755 347.73081,243.36704 345.03072,242.10123 C 342.02563,240.69244 339.31902,238.50138 338.05263,236.45233 C 332.44339,227.37638 329.57522,211.14161 332.03126,202.36947 C 335.1121,191.3658 350.21738,184.57988 360.63079,189.52137 C 369.44506,193.70401 378.76549,213.14939 377.77508,225.2898 C 376.98096,235.02412 375.19509,238.02799 366.35013,244.50684 C 362.04464,247.66058 354.92196,253.45379 350.52196,257.38066 C 346.12196,261.30753 340.72196,265.81665 338.52196,267.40093 C 327.27938,275.49703 321.02429,285.01125 321.02275,294.01784 C 321.02174,299.93209 323.44717,303.07896 330.91018,306.84628 C 336.76213,309.80033 342.12989,315.00774 347.72082,323.15474 C 355.17705,334.01983 364.05139,337.43748 384.52196,337.32745 C 409.39105,337.19377 431.67812,331.92612 473.50595,316.29566 C 496.17983,307.82276 502.5186,305.06382 503.84511,303.09061 C 507.47067,297.6975 511.83913,293.9027 514.42196,293.9027 C 517.87636,293.9027 521.02196,297.20425 521.02196,300.8299 C 521.02196,306.8987 511.61715,311.86672 479.02196,323.01609 C 469.39696,326.30838 454.54697,332.30568 446.02196,336.34342 C 428.75491,344.52172 424.01933,346.23424 412.66255,348.40715 C 403.41287,350.17691 381.85417,350.37564 370.13981,348.79913 C 360.46606,347.49725 354.7424,348.21254 355.21458,350.66436 C 355.71417,353.25852 377.85125,370.64809 382.97155,372.46858 C 390.16471,375.02607 404.35658,375.47034 413.6414,373.42869 C 427.53202,370.37426 471.44854,351.53006 493.15896,339.30839 C 500.52009,335.16452 504.58509,333.47081 507.19209,333.4614 C 511.60358,333.44548 515.02196,336.18185 515.02196,339.7291 C 515.02196,343.54182 507.63307,350.01213 499.45144,353.36391 C 485.22966,359.19017 482.18712,360.78353 468.02196,369.82326 C 448.55507,382.24638 440.08871,388.43117 427.31481,399.56036 C 413.58,411.52674 409.71784,413.14423 394.52196,413.29416 C 382.37277,413.41404 378.71822,412.20112 370.7678,405.41031 C 364.57614,400.12175 349.78352,381.67698 345.57191,373.99382 C 341.21305,366.04204 331.42022,354.9027 328.7885,354.9027 C 327.08323,354.9027 326.92149,355.34591 324.04436,367.9027 C 321.99325,376.85448 314.62929,393.86936 302.64092,417.35664 C 288.15328,445.74042 287.53303,448.21955 287.49288,477.9027 C 287.45934,502.7088 288.08478,500.55303 276.033,517.4027 C 261.19298,538.15064 238.20562,592.4953 232.67631,619.9027 C 228.53171,640.44648 225.61331,675.29658 226.3957,694.9027 C 227.01733,710.48031 226.21451,715.14688 222.52196,717.41989 C 218.72836,719.75511 214.19029,717.34232 204.93034,708.06684 C 190.25441,693.36629 185.60189,681.22178 185.71264,657.9027 C 185.78319,643.05033 187.1005,631.72672 190.04588,620.65432 C 192.52465,611.336 192.57717,608.65 190.27196,609.09034 C 187.91227,609.54108 182.54428,620.62154 179.92102,630.45646 C 178.32709,636.43229 177.67868,642.49417 177.30613,654.9027 C 176.85118,670.05554 177.02173,672.34163 179.39503,682.9027 C 182.37274,696.15339 188.10556,708.64316 195.98018,719.0358 C 208.05902,734.97702 269.3582,789.43607 310.22406,820.53165 C 319.96022,827.94007 330.89236,837.20527 334.51771,841.12098 C 356.11861,864.45194 351.89386,885.88883 322.43667,902.42166 C 317.80858,905.01917 314.02196,907.31143 314.02196,907.51557 C 314.02196,907.71971 317.78519,912.95282 322.3847,919.14472 C 339.30555,941.92369 349.13424,958.60135 352.53801,970.30989 C 354.78131,978.02659 354.6568,989.09329 352.24635,996.23329 C 351.19366,999.35149 350.63153,1001.9027 350.99717,1001.9027 C 351.3628,1001.9027 353.46203,1000.3619 355.66212,998.47869 z M 373.02561,253.90952 C 369.85199,247.97956 375.65688,242.9027 385.61083,242.9027 C 389.07203,242.9027 392.16809,243.33012 392.49095,243.85253 C 393.24568,245.07371 389.84028,246.9027 386.81182,246.9027 C 385.0333,246.9027 383.99547,247.92473 382.49608,251.1527 C 380.85354,254.68886 379.98724,255.4545 377.3384,255.7111 C 374.93032,255.94438 373.87977,255.50554 373.02561,253.90952 z M 432.30255,249.57462 C 426.45484,247.53251 422.02158,244.56974 423.14004,243.45128 C 423.41451,243.17681 426.76273,242.67249 430.58052,242.33056 C 439.60562,241.52226 443.02196,242.76128 443.02196,246.84277 C 443.02196,248.77501 442.33788,250.19845 441.0877,250.86752 C 440.02387,251.43687 439.01136,251.86757 438.8377,251.82462 C 438.66404,251.78168 435.72322,250.76918 432.30255,249.57462 z M 224.10388,529.87324 C 233.71452,519.9841 236.35761,515.04303 235.83835,507.93645 C 235.47602,502.97765 233.62223,501.28424 229.64804,502.2817 C 226.67517,503.02784 225.05366,505.96271 222.54212,515.14307 C 221.35726,519.47406 219.6275,522.3899 215.49682,527.01923 C 209.96057,533.22383 209.04106,535.5218 211.22196,537.7027 C 213.50956,539.9903 215.37158,538.8586 224.10388,529.87324 z M 608.71245,361.11516 C 610.84825,359.75719 615.00218,349.49639 615.0122,345.55391 C 615.01986,342.53068 614.35578,341.08281 611.9162,338.80391 C 610.20804,337.20824 608.39524,335.9027 607.88775,335.9027 C 607.38027,335.9027 603.49037,334.25673 599.24352,332.24499 C 593.97123,329.7475 589.43478,326.57552 584.94191,322.24499 C 581.32286,318.75673 577.84394,315.9027 577.21096,315.9027 C 576.57796,315.9027 575.7697,317.05961 575.41481,318.47361 C 574.2652,323.05401 575.91396,330.22171 580.05273,338.63619 C 583.7142,346.08027 584.98076,347.59034 593.26286,354.38619 C 602.16557,361.69127 605.51316,363.14929 608.71245,361.11516 z M 368.11947,227.1527 C 369.28367,224.09782 368.95395,221.74777 365.94228,211.63516 C 364.62453,207.21038 362.73871,203.49465 360.70275,201.31145 C 357.76123,198.15717 357.3339,197.9992 355.02196,199.2114 C 351.66993,200.96894 351.99933,204.97395 355.85728,209.36792 C 358.79245,212.7109 361.29271,219.04367 362.48412,226.1527 C 363.2697,230.84016 366.49602,231.41268 368.11947,227.1527 z M 509.04248,224.37798 C 511.18056,221.80175 509.62792,209.41676 506.5917,204.82872 C 503.47303,200.11608 496.3288,195.80433 490.56203,195.15433 C 486.82552,194.73317 486.05336,194.97551 485.02814,196.89115 C 483.62474,199.51342 484.25611,200.2567 489.23924,201.84865 C 495.3929,203.81456 501.10087,212.29035 502.60477,221.69518 C 503.164,225.19235 503.6574,225.9027 505.52732,225.9027 C 506.76468,225.9027 508.3465,225.21657 509.04248,224.37798 z M 515.66012,89.742136 C 522.85561,84.767906 523.44464,84.552306 530.3392,84.369456 C 539.08857,84.137416 541.02197,83.400666 541.02197,80.298596 C 541.02197,75.465616 524.37794,60.754868 517.43645,59.452636 C 510.4067,58.133846 507.91835,61.926623 506.47304,76.163206 C 505.93364,81.476516 505.1697,83.700116 502.90434,86.550706 C 499.77851,90.484056 499.32016,92.791666 501.27196,94.769146 C 503.29182,96.815586 507.61091,95.306556 515.66012,89.742136 z"
                 id="path1909"
                 sodipodi:nodetypes="cssssssssssssssssssssssssssssssssssssssssssssssssssssssssccssssssssssssssssssssssssssssssssssccssssssssssssssssssscccssssssssssssssssscccsssssssssssssssssssssssssssssssssssssssssssssssssssssssssssssssssssssssssssssssssssccsssssccsssssccsssssccsssssssssccsssssccssssssccssssssc" />
            </g>
          </g>
        </g>
      </g>
    </g>
    <text
       xml:space="preserve"
       style="font-size:16.80438614px;font-style:normal;font-variant:normal;font-weight:bold;font-stretch:normal;text-align:center;line-height:100%;writing-mode:lr-tb;text-anchor:middle;fill:#ffffff;fill-opacity:1;stroke:none;stroke-width:1px;stroke-linecap:butt;stroke-linejoin:miter;stroke-opacity:1;font-family:Standard Symbols L;-inkscape-font-specification:Standard Symbols L Bold"
       x="283.08258"
       y="54.858765"
       id="text3481"
       sodipodi:linespacing="100%"><tspan
         sodipodi:role="line"
         id="tspan3491"
         x="283.08258"
         y="54.858765">@SSH</tspan></text>
  </g>
</svg>
